<svg xmlns="http://www.w3.org/2000/svg" xmlns:xlink="http://www.w3.org/1999/xlink" width="1366" zoomAndPan="magnify" viewBox="0 0 1024.5 576" height="768" preserveAspectRatio="xMidYMid meet" version="1.0"><defs><g/><clipPath id="a8f6cf300a"><path d="M 0 0.140625 L 1024 0.140625 L 1024 575.859375 L 0 575.859375 Z M 0 0.140625 " clip-rule="nonzero"/></clipPath><clipPath id="a86d5b0365"><path d="M 535.796875 354.125 L 545.542969 354.125 L 545.542969 374.363281 L 535.796875 374.363281 Z M 535.796875 354.125 " clip-rule="nonzero"/></clipPath><clipPath id="34600bfca2"><path d="M 576.296875 354.125 L 596.539062 354.125 L 596.539062 374.363281 L 576.296875 374.363281 Z M 576.296875 354.125 " clip-rule="nonzero"/></clipPath></defs><g clip-path="url(#a8f6cf300a)"><path fill="#ffffff" d="M 0 0.140625 L 1024 0.140625 L 1024 575.859375 L 0 575.859375 Z M 0 0.140625 " fill-opacity="1" fill-rule="nonzero"/><path fill="#fefefe" d="M 0 0.140625 L 1024 0.140625 L 1024 575.859375 L 0 575.859375 Z M 0 0.140625 " fill-opacity="1" fill-rule="nonzero"/></g><g fill="#4b706e" fill-opacity="1"><g transform="translate(535.797182, 345.109008)"><g><path d="M 13.65625 -4.171875 C 13.65625 -2.773438 13.109375 -1.691406 12.015625 -0.921875 C 10.921875 -0.160156 9.382812 0.21875 7.40625 0.21875 C 3.71875 0.21875 1.582031 -1.0625 1 -3.625 L 2.984375 -4.03125 C 3.210938 -3.113281 3.695312 -2.441406 4.4375 -2.015625 C 5.1875 -1.597656 6.203125 -1.390625 7.484375 -1.390625 C 8.804688 -1.390625 9.828125 -1.613281 10.546875 -2.0625 C 11.265625 -2.519531 11.625 -3.1875 11.625 -4.0625 C 11.625 -4.5625 11.507812 -4.960938 11.28125 -5.265625 C 11.0625 -5.578125 10.742188 -5.832031 10.328125 -6.03125 C 9.921875 -6.226562 9.4375 -6.394531 8.875 -6.53125 C 8.3125 -6.664062 7.6875 -6.816406 7 -6.984375 C 5.800781 -7.242188 4.890625 -7.503906 4.265625 -7.765625 C 3.648438 -8.035156 3.164062 -8.332031 2.8125 -8.65625 C 2.457031 -8.976562 2.179688 -9.359375 1.984375 -9.796875 C 1.796875 -10.234375 1.703125 -10.734375 1.703125 -11.296875 C 1.703125 -12.597656 2.195312 -13.597656 3.1875 -14.296875 C 4.1875 -14.992188 5.609375 -15.34375 7.453125 -15.34375 C 9.171875 -15.34375 10.484375 -15.078125 11.390625 -14.546875 C 12.296875 -14.023438 12.929688 -13.132812 13.296875 -11.875 L 11.28125 -11.515625 C 11.0625 -12.316406 10.640625 -12.894531 10.015625 -13.25 C 9.390625 -13.613281 8.523438 -13.796875 7.421875 -13.796875 C 6.210938 -13.796875 5.289062 -13.597656 4.65625 -13.203125 C 4.019531 -12.804688 3.703125 -12.207031 3.703125 -11.40625 C 3.703125 -10.945312 3.820312 -10.5625 4.0625 -10.25 C 4.3125 -9.945312 4.671875 -9.691406 5.140625 -9.484375 C 5.609375 -9.273438 6.535156 -9.015625 7.921875 -8.703125 C 8.390625 -8.597656 8.851562 -8.488281 9.3125 -8.375 C 9.769531 -8.269531 10.207031 -8.140625 10.625 -7.984375 C 11.050781 -7.828125 11.445312 -7.644531 11.8125 -7.4375 C 12.1875 -7.226562 12.507812 -6.972656 12.78125 -6.671875 C 13.050781 -6.367188 13.265625 -6.015625 13.421875 -5.609375 C 13.578125 -5.203125 13.65625 -4.722656 13.65625 -4.171875 Z M 13.65625 -4.171875 "/></g></g></g><g fill="#4b706e" fill-opacity="1"><g transform="translate(549.361777, 345.109008)"><g><path d="M 16.046875 -7.625 C 16.046875 -6.050781 15.742188 -4.671875 15.140625 -3.484375 C 14.535156 -2.296875 13.664062 -1.378906 12.53125 -0.734375 C 11.40625 -0.0976562 10.070312 0.21875 8.53125 0.21875 C 6.976562 0.21875 5.640625 -0.09375 4.515625 -0.71875 C 3.390625 -1.351562 2.53125 -2.265625 1.9375 -3.453125 C 1.34375 -4.648438 1.046875 -6.039062 1.046875 -7.625 C 1.046875 -10.050781 1.707031 -11.941406 3.03125 -13.296875 C 4.351562 -14.660156 6.195312 -15.34375 8.5625 -15.34375 C 10.09375 -15.34375 11.421875 -15.035156 12.546875 -14.421875 C 13.679688 -13.816406 14.546875 -12.929688 15.140625 -11.765625 C 15.742188 -10.597656 16.046875 -9.21875 16.046875 -7.625 Z M 13.953125 -7.625 C 13.953125 -9.507812 13.476562 -10.988281 12.53125 -12.0625 C 11.59375 -13.132812 10.269531 -13.671875 8.5625 -13.671875 C 6.820312 -13.671875 5.476562 -13.140625 4.53125 -12.078125 C 3.59375 -11.023438 3.125 -9.539062 3.125 -7.625 C 3.125 -5.726562 3.597656 -4.222656 4.546875 -3.109375 C 5.503906 -2.003906 6.832031 -1.453125 8.53125 -1.453125 C 10.28125 -1.453125 11.617188 -1.988281 12.546875 -3.0625 C 13.484375 -4.144531 13.953125 -5.664062 13.953125 -7.625 Z M 13.953125 -7.625 "/></g></g></g><g fill="#4b706e" fill-opacity="1"><g transform="translate(565.363233, 345.109008)"><g><path d="M 8.5 -13.671875 C 6.820312 -13.671875 5.519531 -13.128906 4.59375 -12.046875 C 3.664062 -10.972656 3.203125 -9.5 3.203125 -7.625 C 3.203125 -5.78125 3.6875 -4.289062 4.65625 -3.15625 C 5.625 -2.03125 6.9375 -1.46875 8.59375 -1.46875 C 10.707031 -1.46875 12.296875 -2.515625 13.359375 -4.609375 L 15.046875 -3.78125 C 14.421875 -2.476562 13.539062 -1.484375 12.40625 -0.796875 C 11.28125 -0.117188 9.972656 0.21875 8.484375 0.21875 C 6.960938 0.21875 5.644531 -0.0976562 4.53125 -0.734375 C 3.414062 -1.367188 2.566406 -2.273438 1.984375 -3.453125 C 1.398438 -4.628906 1.109375 -6.019531 1.109375 -7.625 C 1.109375 -10.039062 1.757812 -11.929688 3.0625 -13.296875 C 4.375 -14.660156 6.179688 -15.34375 8.484375 -15.34375 C 10.085938 -15.34375 11.429688 -15.03125 12.515625 -14.40625 C 13.597656 -13.78125 14.394531 -12.847656 14.90625 -11.609375 L 12.953125 -10.953125 C 12.609375 -11.835938 12.046875 -12.507812 11.265625 -12.96875 C 10.484375 -13.4375 9.5625 -13.671875 8.5 -13.671875 Z M 8.5 -13.671875 "/></g></g></g><g fill="#4b706e" fill-opacity="1"><g transform="translate(580.140894, 345.109008)"><g><path d="M 2.03125 0 L 2.03125 -15.125 L 4.078125 -15.125 L 4.078125 0 Z M 2.03125 0 "/></g></g></g><g fill="#4b706e" fill-opacity="1"><g transform="translate(585.149668, 345.109008)"><g><path d="M 12.53125 0 L 10.796875 -4.421875 L 3.90625 -4.421875 L 2.171875 0 L 0.046875 0 L 6.21875 -15.125 L 8.546875 -15.125 L 14.625 0 Z M 7.359375 -13.578125 L 7.25 -13.28125 C 7.070312 -12.6875 6.8125 -11.925781 6.46875 -11 L 4.53125 -6.015625 L 10.1875 -6.015625 L 8.25 -11.015625 C 8.039062 -11.503906 7.835938 -12.0625 7.640625 -12.6875 Z M 7.359375 -13.578125 "/></g></g></g><g fill="#4b706e" fill-opacity="1"><g transform="translate(598.714264, 345.109008)"><g><path d="M 1.796875 0 L 1.796875 -15.125 L 3.859375 -15.125 L 3.859375 -1.671875 L 11.5 -1.671875 L 11.5 0 Z M 1.796875 0 "/></g></g></g><g fill="#4b706e" fill-opacity="1"><g transform="translate(609.842012, 345.109008)"><g/></g></g><g fill="#4b706e" fill-opacity="1"><g transform="translate(614.850786, 345.109008)"><g><path d="M 14.65625 0 L 14.65625 -10.09375 C 14.65625 -11.207031 14.691406 -12.28125 14.765625 -13.3125 C 14.410156 -12.03125 14.09375 -11.03125 13.8125 -10.3125 L 9.90625 0 L 8.46875 0 L 4.515625 -10.3125 L 3.90625 -12.125 L 3.546875 -13.3125 L 3.578125 -12.125 L 3.625 -10.09375 L 3.625 0 L 1.796875 0 L 1.796875 -15.125 L 4.5 -15.125 L 8.515625 -4.640625 C 8.660156 -4.210938 8.800781 -3.757812 8.9375 -3.28125 C 9.070312 -2.800781 9.160156 -2.453125 9.203125 -2.234375 C 9.253906 -2.515625 9.367188 -2.945312 9.546875 -3.53125 C 9.734375 -4.113281 9.859375 -4.484375 9.921875 -4.640625 L 13.875 -15.125 L 16.515625 -15.125 L 16.515625 0 Z M 14.65625 0 "/></g></g></g><g fill="#4b706e" fill-opacity="1"><g transform="translate(632.065295, 345.109008)"><g><path d="M 1.796875 0 L 1.796875 -15.125 L 13.28125 -15.125 L 13.28125 -13.453125 L 3.859375 -13.453125 L 3.859375 -8.59375 L 12.640625 -8.59375 L 12.640625 -6.9375 L 3.859375 -6.9375 L 3.859375 -1.671875 L 13.71875 -1.671875 L 13.71875 0 Z M 1.796875 0 "/></g></g></g><g fill="#4b706e" fill-opacity="1"><g transform="translate(645.629891, 345.109008)"><g><path d="M 14.828125 -7.71875 C 14.828125 -6.15625 14.519531 -4.789062 13.90625 -3.625 C 13.300781 -2.457031 12.441406 -1.5625 11.328125 -0.9375 C 10.210938 -0.3125 8.921875 0 7.453125 0 L 1.796875 0 L 1.796875 -15.125 L 6.8125 -15.125 C 9.375 -15.125 11.347656 -14.476562 12.734375 -13.1875 C 14.128906 -11.90625 14.828125 -10.082031 14.828125 -7.71875 Z M 12.765625 -7.71875 C 12.765625 -9.59375 12.25 -11.019531 11.21875 -12 C 10.195312 -12.988281 8.710938 -13.484375 6.765625 -13.484375 L 3.859375 -13.484375 L 3.859375 -1.640625 L 7.21875 -1.640625 C 8.332031 -1.640625 9.304688 -1.882812 10.140625 -2.375 C 10.984375 -2.863281 11.628906 -3.5625 12.078125 -4.46875 C 12.535156 -5.382812 12.765625 -6.46875 12.765625 -7.71875 Z M 12.765625 -7.71875 "/></g></g></g><g fill="#4b706e" fill-opacity="1"><g transform="translate(660.407552, 345.109008)"><g><path d="M 2.03125 0 L 2.03125 -15.125 L 4.078125 -15.125 L 4.078125 0 Z M 2.03125 0 "/></g></g></g><g fill="#4b706e" fill-opacity="1"><g transform="translate(665.416326, 345.109008)"><g><path d="M 12.53125 0 L 10.796875 -4.421875 L 3.90625 -4.421875 L 2.171875 0 L 0.046875 0 L 6.21875 -15.125 L 8.546875 -15.125 L 14.625 0 Z M 7.359375 -13.578125 L 7.25 -13.28125 C 7.070312 -12.6875 6.8125 -11.925781 6.46875 -11 L 4.53125 -6.015625 L 10.1875 -6.015625 L 8.25 -11.015625 C 8.039062 -11.503906 7.835938 -12.0625 7.640625 -12.6875 Z M 7.359375 -13.578125 "/></g></g></g><g clip-path="url(#a86d5b0365)"><path fill="#161616" d="M 543.214844 357.503906 L 545.4375 357.503906 L 545.4375 354.148438 L 542.597656 354.148438 L 542.597656 354.164062 C 538.863281 354.296875 538.097656 356.394531 538.03125 358.601562 L 538.023438 358.601562 L 538.023438 360.929688 L 535.800781 360.929688 L 535.800781 364.285156 L 538.023438 364.285156 L 538.023438 374.492188 L 542.015625 374.492188 L 542.015625 364.285156 L 544.875 364.285156 L 545.4375 360.929688 L 542.015625 360.929688 L 542.015625 358.847656 C 542.015625 358.105469 542.507812 357.503906 543.214844 357.503906 Z M 543.214844 357.503906 " fill-opacity="1" fill-rule="nonzero"/></g><g clip-path="url(#34600bfca2)"><path fill="#161616" d="M 586.488281 355.960938 C 589.210938 355.960938 589.53125 355.972656 590.609375 356.019531 C 591.601562 356.066406 592.140625 356.230469 592.503906 356.375 C 592.976562 356.558594 593.316406 356.78125 593.671875 357.136719 C 594.03125 357.496094 594.25 357.835938 594.4375 358.308594 C 594.578125 358.664062 594.742188 359.207031 594.789062 360.203125 C 594.839844 361.28125 594.847656 361.601562 594.847656 364.320312 C 594.847656 367.042969 594.839844 367.363281 594.789062 368.441406 C 594.746094 369.433594 594.582031 369.972656 594.4375 370.335938 C 594.253906 370.808594 594.03125 371.148438 593.671875 371.507812 C 593.316406 371.863281 592.976562 372.082031 592.503906 372.269531 C 592.144531 372.410156 591.605469 372.574219 590.609375 372.625 C 589.53125 372.671875 589.210938 372.683594 586.488281 372.683594 C 583.769531 372.683594 583.445312 372.671875 582.371094 372.625 C 581.378906 372.578125 580.835938 372.414062 580.476562 372.269531 C 580 372.085938 579.660156 371.863281 579.304688 371.507812 C 578.945312 371.148438 578.726562 370.808594 578.539062 370.335938 C 578.402344 369.980469 578.238281 369.4375 578.1875 368.441406 C 578.136719 367.363281 578.128906 367.042969 578.128906 364.320312 C 578.128906 361.601562 578.136719 361.28125 578.1875 360.203125 C 578.230469 359.210938 578.398438 358.671875 578.539062 358.308594 C 578.722656 357.835938 578.945312 357.496094 579.304688 357.136719 C 579.660156 356.78125 580 356.5625 580.476562 356.375 C 580.832031 356.234375 581.375 356.070312 582.371094 356.019531 C 583.445312 355.972656 583.769531 355.960938 586.488281 355.960938 M 586.488281 354.125 C 583.71875 354.125 583.375 354.140625 582.285156 354.1875 C 581.199219 354.238281 580.457031 354.410156 579.808594 354.664062 C 579.140625 354.921875 578.570312 355.269531 578.003906 355.835938 C 577.441406 356.40625 577.09375 356.972656 576.832031 357.640625 C 576.582031 358.289062 576.410156 359.03125 576.359375 360.117188 C 576.3125 361.203125 576.296875 361.550781 576.296875 364.316406 C 576.296875 367.089844 576.3125 367.433594 576.359375 368.523438 C 576.410156 369.609375 576.582031 370.351562 576.832031 370.996094 C 577.09375 371.667969 577.441406 372.234375 578.007812 372.800781 C 578.574219 373.371094 579.144531 373.71875 579.8125 373.976562 C 580.460938 374.226562 581.203125 374.402344 582.289062 374.453125 C 583.375 374.5 583.722656 374.515625 586.492188 374.515625 C 589.265625 374.515625 589.609375 374.5 590.699219 374.453125 C 591.785156 374.402344 592.527344 374.226562 593.171875 373.976562 C 593.84375 373.71875 594.410156 373.371094 594.976562 372.800781 C 595.546875 372.234375 595.894531 371.667969 596.152344 370.996094 C 596.402344 370.351562 596.578125 369.609375 596.628906 368.523438 C 596.675781 367.4375 596.691406 367.089844 596.691406 364.316406 C 596.691406 361.546875 596.675781 361.203125 596.628906 360.113281 C 596.578125 359.027344 596.402344 358.285156 596.152344 357.636719 C 595.894531 356.96875 595.546875 356.398438 594.976562 355.832031 C 594.410156 355.265625 593.84375 354.917969 593.171875 354.65625 C 592.527344 354.40625 591.785156 354.234375 590.699219 354.183594 C 589.609375 354.140625 589.257812 354.125 586.488281 354.125 " fill-opacity="1" fill-rule="nonzero"/></g><path fill="#161616" d="M 586.488281 359.085938 C 583.597656 359.085938 581.257812 361.425781 581.257812 364.316406 C 581.257812 367.207031 583.601562 369.554688 586.492188 369.554688 C 589.382812 369.554688 591.730469 367.214844 591.730469 364.316406 C 591.726562 361.425781 589.378906 359.085938 586.488281 359.085938 M 586.488281 367.71875 C 584.613281 367.71875 583.09375 366.199219 583.09375 364.320312 C 583.09375 362.445312 584.613281 360.925781 586.488281 360.925781 C 588.367188 360.925781 589.886719 362.445312 589.886719 364.320312 C 589.890625 366.195312 588.367188 367.71875 586.488281 367.71875 " fill-opacity="1" fill-rule="nonzero"/><path fill="#161616" d="M 593.15625 358.878906 C 593.15625 359.554688 592.605469 360.105469 591.929688 360.105469 C 591.257812 360.105469 590.707031 359.554688 590.707031 358.878906 C 590.707031 358.207031 591.257812 357.65625 591.929688 357.65625 C 592.605469 357.65625 593.15625 358.199219 593.15625 358.878906 " fill-opacity="1" fill-rule="nonzero"/><g fill="#4b706e" fill-opacity="1"><g transform="translate(57.571905, 120.312362)"><g><path d="M 34.78125 -55.953125 C 27.9375 -55.953125 22.609375 -53.75 18.796875 -49.34375 C 14.992188 -44.9375 13.09375 -38.898438 13.09375 -31.234375 C 13.09375 -23.648438 15.070312 -17.550781 19.03125 -12.9375 C 23 -8.320312 28.367188 -6.015625 35.140625 -6.015625 C 43.804688 -6.015625 50.320312 -10.304688 54.6875 -18.890625 L 61.53125 -15.453125 C 58.988281 -10.128906 55.410156 -6.078125 50.796875 -3.296875 C 46.179688 -0.515625 40.832031 0.875 34.75 0.875 C 28.507812 0.875 23.113281 -0.414062 18.5625 -3 C 14.007812 -5.59375 10.535156 -9.296875 8.140625 -14.109375 C 5.753906 -18.929688 4.5625 -24.640625 4.5625 -31.234375 C 4.5625 -41.097656 7.226562 -48.828125 12.5625 -54.421875 C 17.894531 -60.015625 25.273438 -62.8125 34.703125 -62.8125 C 41.285156 -62.8125 46.785156 -61.519531 51.203125 -58.9375 C 55.628906 -56.363281 58.882812 -52.546875 60.96875 -47.484375 L 53.015625 -44.84375 C 51.578125 -48.445312 49.269531 -51.195312 46.09375 -53.09375 C 42.914062 -55 39.144531 -55.953125 34.78125 -55.953125 Z M 34.78125 -55.953125 "/></g></g></g><g fill="#4b706e" fill-opacity="1"><g transform="translate(115.338828, 120.312362)"><g><path d="M 65.65625 -31.234375 C 65.65625 -24.753906 64.414062 -19.082031 61.9375 -14.21875 C 59.46875 -9.363281 55.921875 -5.632812 51.296875 -3.03125 C 46.671875 -0.425781 41.210938 0.875 34.921875 0.875 C 28.566406 0.875 23.082031 -0.410156 18.46875 -2.984375 C 13.851562 -5.566406 10.332031 -9.296875 7.90625 -14.171875 C 5.476562 -19.046875 4.265625 -24.734375 4.265625 -31.234375 C 4.265625 -41.128906 6.972656 -48.863281 12.390625 -54.4375 C 17.804688 -60.019531 25.34375 -62.8125 35 -62.8125 C 41.300781 -62.8125 46.765625 -61.554688 51.390625 -59.046875 C 56.015625 -56.546875 59.546875 -52.910156 61.984375 -48.140625 C 64.429688 -43.367188 65.65625 -37.734375 65.65625 -31.234375 Z M 57.09375 -31.234375 C 57.09375 -38.929688 55.164062 -44.972656 51.3125 -49.359375 C 47.46875 -53.753906 42.03125 -55.953125 35 -55.953125 C 27.914062 -55.953125 22.441406 -53.785156 18.578125 -49.453125 C 14.710938 -45.117188 12.78125 -39.046875 12.78125 -31.234375 C 12.78125 -23.472656 14.734375 -17.3125 18.640625 -12.75 C 22.554688 -8.195312 27.984375 -5.921875 34.921875 -5.921875 C 42.066406 -5.921875 47.546875 -8.125 51.359375 -12.53125 C 55.179688 -16.945312 57.09375 -23.179688 57.09375 -31.234375 Z M 57.09375 -31.234375 "/></g></g></g><g fill="#4b706e" fill-opacity="1"><g transform="translate(178.113073, 120.312362)"><g><path d="M 47.53125 0 L 14.40625 -52.703125 L 14.625 -48.453125 L 14.84375 -41.109375 L 14.84375 0 L 7.375 0 L 7.375 -61.890625 L 17.125 -61.890625 L 50.59375 -8.828125 C 50.25 -14.566406 50.078125 -18.722656 50.078125 -21.296875 L 50.078125 -61.890625 L 57.625 -61.890625 L 57.625 0 Z M 47.53125 0 "/></g></g></g><g fill="#4b706e" fill-opacity="1"><g transform="translate(235.880001, 120.312362)"><g><path d="M 31.625 -55.03125 L 31.625 0 L 23.28125 0 L 23.28125 -55.03125 L 2.015625 -55.03125 L 2.015625 -61.890625 L 52.875 -61.890625 L 52.875 -55.03125 Z M 31.625 -55.03125 "/></g></g></g><g fill="#4b706e" fill-opacity="1"><g transform="translate(283.632275, 120.312362)"><g><path d="M 51.25 0 L 44.1875 -18.09375 L 15.984375 -18.09375 L 8.875 0 L 0.171875 0 L 25.4375 -61.890625 L 34.96875 -61.890625 L 59.828125 0 Z M 30.09375 -55.5625 L 29.6875 -54.328125 C 28.957031 -51.898438 27.875 -48.785156 26.4375 -44.984375 L 18.53125 -24.640625 L 41.6875 -24.640625 L 33.734375 -45.0625 C 32.910156 -47.082031 32.085938 -49.367188 31.265625 -51.921875 Z M 30.09375 -55.5625 "/></g></g></g><g fill="#4b706e" fill-opacity="1"><g transform="translate(336.435795, 120.312362)"><g><path d="M 34.78125 -55.953125 C 27.9375 -55.953125 22.609375 -53.75 18.796875 -49.34375 C 14.992188 -44.9375 13.09375 -38.898438 13.09375 -31.234375 C 13.09375 -23.648438 15.070312 -17.550781 19.03125 -12.9375 C 23 -8.320312 28.367188 -6.015625 35.140625 -6.015625 C 43.804688 -6.015625 50.320312 -10.304688 54.6875 -18.890625 L 61.53125 -15.453125 C 58.988281 -10.128906 55.410156 -6.078125 50.796875 -3.296875 C 46.179688 -0.515625 40.832031 0.875 34.75 0.875 C 28.507812 0.875 23.113281 -0.414062 18.5625 -3 C 14.007812 -5.59375 10.535156 -9.296875 8.140625 -14.109375 C 5.753906 -18.929688 4.5625 -24.640625 4.5625 -31.234375 C 4.5625 -41.097656 7.226562 -48.828125 12.5625 -54.421875 C 17.894531 -60.015625 25.273438 -62.8125 34.703125 -62.8125 C 41.285156 -62.8125 46.785156 -61.519531 51.203125 -58.9375 C 55.628906 -56.363281 58.882812 -52.546875 60.96875 -47.484375 L 53.015625 -44.84375 C 51.578125 -48.445312 49.269531 -51.195312 46.09375 -53.09375 C 42.914062 -55 39.144531 -55.953125 34.78125 -55.953125 Z M 34.78125 -55.953125 "/></g></g></g><g fill="#4b706e" fill-opacity="1"><g transform="translate(394.202712, 120.312362)"><g><path d="M 31.625 -55.03125 L 31.625 0 L 23.28125 0 L 23.28125 -55.03125 L 2.015625 -55.03125 L 2.015625 -61.890625 L 52.875 -61.890625 L 52.875 -55.03125 Z M 31.625 -55.03125 "/></g></g></g><g fill="#4b706e" fill-opacity="1"><g transform="translate(441.954986, 120.312362)"><g><path d="M 51.25 0 L 44.1875 -18.09375 L 15.984375 -18.09375 L 8.875 0 L 0.171875 0 L 25.4375 -61.890625 L 34.96875 -61.890625 L 59.828125 0 Z M 30.09375 -55.5625 L 29.6875 -54.328125 C 28.957031 -51.898438 27.875 -48.785156 26.4375 -44.984375 L 18.53125 -24.640625 L 41.6875 -24.640625 L 33.734375 -45.0625 C 32.910156 -47.082031 32.085938 -49.367188 31.265625 -51.921875 Z M 30.09375 -55.5625 "/></g></g></g><g fill="#4b706e" fill-opacity="1"><g transform="translate(494.758529, 120.312362)"><g><path d="M 47.53125 0 L 14.40625 -52.703125 L 14.625 -48.453125 L 14.84375 -41.109375 L 14.84375 0 L 7.375 0 L 7.375 -61.890625 L 17.125 -61.890625 L 50.59375 -8.828125 C 50.25 -14.566406 50.078125 -18.722656 50.078125 -21.296875 L 50.078125 -61.890625 L 57.625 -61.890625 L 57.625 0 Z M 47.53125 0 "/></g></g></g><g fill="#4b706e" fill-opacity="1"><g transform="translate(552.52547, 120.312362)"><g><path d="M 65.65625 -31.234375 C 65.65625 -24.753906 64.414062 -19.082031 61.9375 -14.21875 C 59.46875 -9.363281 55.921875 -5.632812 51.296875 -3.03125 C 46.671875 -0.425781 41.210938 0.875 34.921875 0.875 C 28.566406 0.875 23.082031 -0.410156 18.46875 -2.984375 C 13.851562 -5.566406 10.332031 -9.296875 7.90625 -14.171875 C 5.476562 -19.046875 4.265625 -24.734375 4.265625 -31.234375 C 4.265625 -41.128906 6.972656 -48.863281 12.390625 -54.4375 C 17.804688 -60.019531 25.34375 -62.8125 35 -62.8125 C 41.300781 -62.8125 46.765625 -61.554688 51.390625 -59.046875 C 56.015625 -56.546875 59.546875 -52.910156 61.984375 -48.140625 C 64.429688 -43.367188 65.65625 -37.734375 65.65625 -31.234375 Z M 57.09375 -31.234375 C 57.09375 -38.929688 55.164062 -44.972656 51.3125 -49.359375 C 47.46875 -53.753906 42.03125 -55.953125 35 -55.953125 C 27.914062 -55.953125 22.441406 -53.785156 18.578125 -49.453125 C 14.710938 -45.117188 12.78125 -39.046875 12.78125 -31.234375 C 12.78125 -23.472656 14.734375 -17.3125 18.640625 -12.75 C 22.554688 -8.195312 27.984375 -5.921875 34.921875 -5.921875 C 42.066406 -5.921875 47.546875 -8.125 51.359375 -12.53125 C 55.179688 -16.945312 57.09375 -23.179688 57.09375 -31.234375 Z M 57.09375 -31.234375 "/></g></g></g><g fill="#4b706e" fill-opacity="1"><g transform="translate(615.299731, 120.312362)"><g><path d="M 55.875 -17.078125 C 55.875 -11.367188 53.640625 -6.945312 49.171875 -3.8125 C 44.703125 -0.6875 38.414062 0.875 30.3125 0.875 C 15.226562 0.875 6.484375 -4.363281 4.078125 -14.84375 L 12.203125 -16.46875 C 13.140625 -12.75 15.128906 -10.019531 18.171875 -8.28125 C 21.222656 -6.539062 25.367188 -5.671875 30.609375 -5.671875 C 36.023438 -5.671875 40.203125 -6.597656 43.140625 -8.453125 C 46.085938 -10.316406 47.5625 -13.046875 47.5625 -16.640625 C 47.5625 -18.660156 47.097656 -20.300781 46.171875 -21.5625 C 45.253906 -22.820312 43.960938 -23.863281 42.296875 -24.6875 C 40.628906 -25.507812 38.640625 -26.195312 36.328125 -26.75 C 34.015625 -27.300781 31.453125 -27.898438 28.640625 -28.546875 C 23.742188 -29.628906 20.03125 -30.710938 17.5 -31.796875 C 14.96875 -32.878906 12.96875 -34.085938 11.5 -35.421875 C 10.039062 -36.753906 8.921875 -38.3125 8.140625 -40.09375 C 7.367188 -41.882812 6.984375 -43.9375 6.984375 -46.25 C 6.984375 -51.550781 9.007812 -55.632812 13.0625 -58.5 C 17.125 -61.375 22.929688 -62.8125 30.484375 -62.8125 C 37.515625 -62.8125 42.890625 -61.734375 46.609375 -59.578125 C 50.328125 -57.429688 52.929688 -53.765625 54.421875 -48.578125 L 46.15625 -47.125 C 45.25 -50.40625 43.519531 -52.785156 40.96875 -54.265625 C 38.425781 -55.742188 34.898438 -56.484375 30.390625 -56.484375 C 25.441406 -56.484375 21.664062 -55.660156 19.0625 -54.015625 C 16.457031 -52.378906 15.15625 -49.9375 15.15625 -46.6875 C 15.15625 -44.78125 15.660156 -43.203125 16.671875 -41.953125 C 17.679688 -40.710938 19.132812 -39.660156 21.03125 -38.796875 C 22.9375 -37.941406 26.734375 -36.882812 32.421875 -35.625 C 34.316406 -35.1875 36.207031 -34.738281 38.09375 -34.28125 C 39.988281 -33.820312 41.800781 -33.28125 43.53125 -32.65625 C 45.257812 -32.03125 46.875 -31.289062 48.375 -30.4375 C 49.882812 -29.59375 51.195312 -28.550781 52.3125 -27.3125 C 53.425781 -26.082031 54.296875 -24.632812 54.921875 -22.96875 C 55.554688 -21.300781 55.875 -19.335938 55.875 -17.078125 Z M 55.875 -17.078125 "/></g></g></g><g fill="#161616" fill-opacity="1"><g transform="translate(174.796243, 232.1354)"><g><path d="M 3.15625 0 L 3.15625 -9.78125 L 0.796875 -9.78125 L 0.796875 -10.796875 C 1.523438 -10.796875 2.09375 -10.847656 2.5 -10.953125 C 2.90625 -11.066406 3.195312 -11.234375 3.375 -11.453125 C 3.550781 -11.671875 3.644531 -11.945312 3.65625 -12.28125 L 4.78125 -12.28125 L 4.78125 0 Z M 3.15625 0 "/></g></g></g><g fill="#161616" fill-opacity="1"><g transform="translate(181.19895, 232.1354)"><g><path d="M 3.15625 0 L 3.15625 -9.78125 L 0.796875 -9.78125 L 0.796875 -10.796875 C 1.523438 -10.796875 2.09375 -10.847656 2.5 -10.953125 C 2.90625 -11.066406 3.195312 -11.234375 3.375 -11.453125 C 3.550781 -11.671875 3.644531 -11.945312 3.65625 -12.28125 L 4.78125 -12.28125 L 4.78125 0 Z M 3.15625 0 "/></g></g></g><g fill="#161616" fill-opacity="1"><g transform="translate(187.601657, 232.1354)"><g><path d="M 0.984375 -8.703125 C 0.984375 -9.492188 1.171875 -10.164062 1.546875 -10.71875 C 1.929688 -11.28125 2.445312 -11.707031 3.09375 -12 C 3.738281 -12.300781 4.445312 -12.453125 5.21875 -12.453125 C 6.070312 -12.453125 6.820312 -12.328125 7.46875 -12.078125 C 8.125 -11.828125 8.632812 -11.46875 9 -11 C 9.363281 -10.53125 9.546875 -9.957031 9.546875 -9.28125 C 9.546875 -8.675781 9.351562 -8.128906 8.96875 -7.640625 C 8.59375 -7.148438 8.003906 -6.765625 7.203125 -6.484375 C 7.742188 -6.335938 8.210938 -6.125 8.609375 -5.84375 C 9.015625 -5.5625 9.328125 -5.210938 9.546875 -4.796875 C 9.773438 -4.390625 9.890625 -3.921875 9.890625 -3.390625 C 9.890625 -2.828125 9.769531 -2.320312 9.53125 -1.875 C 9.300781 -1.4375 8.972656 -1.0625 8.546875 -0.75 C 8.117188 -0.4375 7.613281 -0.195312 7.03125 -0.03125 C 6.457031 0.125 5.832031 0.195312 5.15625 0.1875 C 4.3125 0.175781 3.566406 0.0195312 2.921875 -0.28125 C 2.285156 -0.582031 1.78125 -1.007812 1.40625 -1.5625 C 1.039062 -2.113281 0.84375 -2.769531 0.8125 -3.53125 L 2.390625 -3.53125 C 2.503906 -2.769531 2.8125 -2.179688 3.3125 -1.765625 C 3.820312 -1.359375 4.457031 -1.15625 5.21875 -1.15625 C 5.8125 -1.15625 6.332031 -1.25 6.78125 -1.4375 C 7.226562 -1.632812 7.570312 -1.898438 7.8125 -2.234375 C 8.0625 -2.566406 8.1875 -2.957031 8.1875 -3.40625 C 8.1875 -3.894531 8.050781 -4.304688 7.78125 -4.640625 C 7.507812 -4.984375 7.140625 -5.242188 6.671875 -5.421875 C 6.203125 -5.609375 5.675781 -5.703125 5.09375 -5.703125 L 3.984375 -5.734375 L 3.984375 -7.0625 L 5.046875 -7.09375 C 5.578125 -7.101562 6.054688 -7.203125 6.484375 -7.390625 C 6.910156 -7.585938 7.242188 -7.847656 7.484375 -8.171875 C 7.734375 -8.492188 7.859375 -8.847656 7.859375 -9.234375 C 7.859375 -9.566406 7.753906 -9.878906 7.546875 -10.171875 C 7.335938 -10.460938 7.035156 -10.695312 6.640625 -10.875 C 6.253906 -11.050781 5.78125 -11.140625 5.21875 -11.140625 C 4.769531 -11.140625 4.34375 -11.050781 3.9375 -10.875 C 3.539062 -10.707031 3.210938 -10.441406 2.953125 -10.078125 C 2.691406 -9.722656 2.554688 -9.265625 2.546875 -8.703125 Z M 0.984375 -8.703125 "/></g></g></g><g fill="#161616" fill-opacity="1"><g transform="translate(197.791802, 232.1354)"><g/></g></g><g fill="#161616" fill-opacity="1"><g transform="translate(201.196819, 232.1354)"><g><path d="M 0.984375 -8.703125 C 0.984375 -9.492188 1.171875 -10.164062 1.546875 -10.71875 C 1.929688 -11.28125 2.445312 -11.707031 3.09375 -12 C 3.738281 -12.300781 4.445312 -12.453125 5.21875 -12.453125 C 6.070312 -12.453125 6.820312 -12.328125 7.46875 -12.078125 C 8.125 -11.828125 8.632812 -11.46875 9 -11 C 9.363281 -10.53125 9.546875 -9.957031 9.546875 -9.28125 C 9.546875 -8.675781 9.351562 -8.128906 8.96875 -7.640625 C 8.59375 -7.148438 8.003906 -6.765625 7.203125 -6.484375 C 7.742188 -6.335938 8.210938 -6.125 8.609375 -5.84375 C 9.015625 -5.5625 9.328125 -5.210938 9.546875 -4.796875 C 9.773438 -4.390625 9.890625 -3.921875 9.890625 -3.390625 C 9.890625 -2.828125 9.769531 -2.320312 9.53125 -1.875 C 9.300781 -1.4375 8.972656 -1.0625 8.546875 -0.75 C 8.117188 -0.4375 7.613281 -0.195312 7.03125 -0.03125 C 6.457031 0.125 5.832031 0.195312 5.15625 0.1875 C 4.3125 0.175781 3.566406 0.0195312 2.921875 -0.28125 C 2.285156 -0.582031 1.78125 -1.007812 1.40625 -1.5625 C 1.039062 -2.113281 0.84375 -2.769531 0.8125 -3.53125 L 2.390625 -3.53125 C 2.503906 -2.769531 2.8125 -2.179688 3.3125 -1.765625 C 3.820312 -1.359375 4.457031 -1.15625 5.21875 -1.15625 C 5.8125 -1.15625 6.332031 -1.25 6.78125 -1.4375 C 7.226562 -1.632812 7.570312 -1.898438 7.8125 -2.234375 C 8.0625 -2.566406 8.1875 -2.957031 8.1875 -3.40625 C 8.1875 -3.894531 8.050781 -4.304688 7.78125 -4.640625 C 7.507812 -4.984375 7.140625 -5.242188 6.671875 -5.421875 C 6.203125 -5.609375 5.675781 -5.703125 5.09375 -5.703125 L 3.984375 -5.734375 L 3.984375 -7.0625 L 5.046875 -7.09375 C 5.578125 -7.101562 6.054688 -7.203125 6.484375 -7.390625 C 6.910156 -7.585938 7.242188 -7.847656 7.484375 -8.171875 C 7.734375 -8.492188 7.859375 -8.847656 7.859375 -9.234375 C 7.859375 -9.566406 7.753906 -9.878906 7.546875 -10.171875 C 7.335938 -10.460938 7.035156 -10.695312 6.640625 -10.875 C 6.253906 -11.050781 5.78125 -11.140625 5.21875 -11.140625 C 4.769531 -11.140625 4.34375 -11.050781 3.9375 -10.875 C 3.539062 -10.707031 3.210938 -10.441406 2.953125 -10.078125 C 2.691406 -9.722656 2.554688 -9.265625 2.546875 -8.703125 Z M 0.984375 -8.703125 "/></g></g></g><g fill="#161616" fill-opacity="1"><g transform="translate(211.386963, 232.1354)"><g><path d="M 5.203125 -12.453125 C 6.535156 -12.453125 7.597656 -11.914062 8.390625 -10.84375 C 9.179688 -9.78125 9.578125 -8.203125 9.578125 -6.109375 C 9.578125 -4.035156 9.179688 -2.46875 8.390625 -1.40625 C 7.597656 -0.34375 6.53125 0.1875 5.1875 0.1875 C 3.84375 0.1875 2.773438 -0.335938 1.984375 -1.390625 C 1.203125 -2.453125 0.8125 -4.019531 0.8125 -6.09375 C 0.8125 -7.488281 0.992188 -8.65625 1.359375 -9.59375 C 1.722656 -10.539062 2.234375 -11.253906 2.890625 -11.734375 C 3.546875 -12.210938 4.316406 -12.453125 5.203125 -12.453125 Z M 5.203125 -1.171875 C 6.078125 -1.171875 6.738281 -1.554688 7.1875 -2.328125 C 7.644531 -3.097656 7.875 -4.359375 7.875 -6.109375 C 7.875 -7.878906 7.644531 -9.15625 7.1875 -9.9375 C 6.726562 -10.726562 6.066406 -11.125 5.203125 -11.125 C 4.328125 -11.125 3.65625 -10.726562 3.1875 -9.9375 C 2.726562 -9.144531 2.5 -7.867188 2.5 -6.109375 C 2.5 -4.367188 2.726562 -3.109375 3.1875 -2.328125 C 3.65625 -1.554688 4.328125 -1.171875 5.203125 -1.171875 Z M 5.203125 -1.171875 "/></g></g></g><g fill="#161616" fill-opacity="1"><g transform="translate(221.271391, 232.1354)"><g><path d="M 6.515625 -12.28125 L 8.109375 -12.28125 L 8.109375 -4.515625 L 10.140625 -4.515625 L 10.140625 -3.140625 L 8.109375 -3.140625 L 8.109375 0 L 6.578125 0 L 6.578125 -3.140625 L 0.796875 -3.140625 L 0.796875 -4.5625 Z M 2.296875 -4.515625 L 6.53125 -4.515625 L 6.53125 -10.21875 Z M 2.296875 -4.515625 "/></g></g></g><g fill="#161616" fill-opacity="1"><g transform="translate(231.436061, 232.1354)"><g><path d="M 5.359375 -5.015625 L 5.359375 -3.765625 L 1.046875 -3.765625 L 1.046875 -5 Z M 5.359375 -5.015625 "/></g></g></g><g fill="#161616" fill-opacity="1"><g transform="translate(237.337737, 232.1354)"><g><path d="M 0.984375 -8.703125 C 0.984375 -9.492188 1.171875 -10.164062 1.546875 -10.71875 C 1.929688 -11.28125 2.445312 -11.707031 3.09375 -12 C 3.738281 -12.300781 4.445312 -12.453125 5.21875 -12.453125 C 6.070312 -12.453125 6.820312 -12.328125 7.46875 -12.078125 C 8.125 -11.828125 8.632812 -11.46875 9 -11 C 9.363281 -10.53125 9.546875 -9.957031 9.546875 -9.28125 C 9.546875 -8.675781 9.351562 -8.128906 8.96875 -7.640625 C 8.59375 -7.148438 8.003906 -6.765625 7.203125 -6.484375 C 7.742188 -6.335938 8.210938 -6.125 8.609375 -5.84375 C 9.015625 -5.5625 9.328125 -5.210938 9.546875 -4.796875 C 9.773438 -4.390625 9.890625 -3.921875 9.890625 -3.390625 C 9.890625 -2.828125 9.769531 -2.320312 9.53125 -1.875 C 9.300781 -1.4375 8.972656 -1.0625 8.546875 -0.75 C 8.117188 -0.4375 7.613281 -0.195312 7.03125 -0.03125 C 6.457031 0.125 5.832031 0.195312 5.15625 0.1875 C 4.3125 0.175781 3.566406 0.0195312 2.921875 -0.28125 C 2.285156 -0.582031 1.78125 -1.007812 1.40625 -1.5625 C 1.039062 -2.113281 0.84375 -2.769531 0.8125 -3.53125 L 2.390625 -3.53125 C 2.503906 -2.769531 2.8125 -2.179688 3.3125 -1.765625 C 3.820312 -1.359375 4.457031 -1.15625 5.21875 -1.15625 C 5.8125 -1.15625 6.332031 -1.25 6.78125 -1.4375 C 7.226562 -1.632812 7.570312 -1.898438 7.8125 -2.234375 C 8.0625 -2.566406 8.1875 -2.957031 8.1875 -3.40625 C 8.1875 -3.894531 8.050781 -4.304688 7.78125 -4.640625 C 7.507812 -4.984375 7.140625 -5.242188 6.671875 -5.421875 C 6.203125 -5.609375 5.675781 -5.703125 5.09375 -5.703125 L 3.984375 -5.734375 L 3.984375 -7.0625 L 5.046875 -7.09375 C 5.578125 -7.101562 6.054688 -7.203125 6.484375 -7.390625 C 6.910156 -7.585938 7.242188 -7.847656 7.484375 -8.171875 C 7.734375 -8.492188 7.859375 -8.847656 7.859375 -9.234375 C 7.859375 -9.566406 7.753906 -9.878906 7.546875 -10.171875 C 7.335938 -10.460938 7.035156 -10.695312 6.640625 -10.875 C 6.253906 -11.050781 5.78125 -11.140625 5.21875 -11.140625 C 4.769531 -11.140625 4.34375 -11.050781 3.9375 -10.875 C 3.539062 -10.707031 3.210938 -10.441406 2.953125 -10.078125 C 2.691406 -9.722656 2.554688 -9.265625 2.546875 -8.703125 Z M 0.984375 -8.703125 "/></g></g></g><g fill="#161616" fill-opacity="1"><g transform="translate(247.527881, 232.1354)"><g><path d="M 0.796875 -12.28125 L 9.40625 -12.28125 L 9.40625 -10.921875 C 8.96875 -10.328125 8.535156 -9.648438 8.109375 -8.890625 C 7.679688 -8.140625 7.273438 -7.351562 6.890625 -6.53125 C 6.503906 -5.707031 6.160156 -4.894531 5.859375 -4.09375 C 5.554688 -3.289062 5.300781 -2.535156 5.09375 -1.828125 C 4.894531 -1.117188 4.769531 -0.507812 4.71875 0 L 3 0 C 3.09375 -0.5625 3.253906 -1.253906 3.484375 -2.078125 C 3.722656 -2.910156 4.035156 -3.816406 4.421875 -4.796875 C 4.804688 -5.773438 5.269531 -6.785156 5.8125 -7.828125 C 6.351562 -8.878906 6.976562 -9.910156 7.6875 -10.921875 L 0.796875 -10.921875 Z M 0.796875 -12.28125 "/></g></g></g><g fill="#161616" fill-opacity="1"><g transform="translate(257.216996, 232.1354)"><g><path d="M 4.9375 0.1875 C 4.257812 0.1875 3.625 0.0546875 3.03125 -0.203125 C 2.445312 -0.460938 1.957031 -0.828125 1.5625 -1.296875 C 1.175781 -1.773438 0.9375 -2.34375 0.84375 -3 L 2.375 -3 C 2.507812 -2.445312 2.800781 -1.992188 3.25 -1.640625 C 3.695312 -1.296875 4.242188 -1.125 4.890625 -1.125 C 5.609375 -1.125 6.226562 -1.3125 6.75 -1.6875 C 7.269531 -2.070312 7.65625 -2.660156 7.90625 -3.453125 C 8.15625 -4.242188 8.25 -5.257812 8.1875 -6.5 C 8.050781 -6.0625 7.828125 -5.679688 7.515625 -5.359375 C 7.210938 -5.035156 6.847656 -4.78125 6.421875 -4.59375 C 5.992188 -4.40625 5.519531 -4.3125 5 -4.3125 C 4.1875 -4.3125 3.46875 -4.46875 2.84375 -4.78125 C 2.226562 -5.101562 1.75 -5.554688 1.40625 -6.140625 C 1.070312 -6.734375 0.90625 -7.441406 0.90625 -8.265625 C 0.90625 -9.085938 1.070312 -9.8125 1.40625 -10.4375 C 1.75 -11.0625 2.238281 -11.550781 2.875 -11.90625 C 3.507812 -12.269531 4.257812 -12.453125 5.125 -12.453125 C 6.082031 -12.453125 6.90625 -12.207031 7.59375 -11.71875 C 8.289062 -11.226562 8.828125 -10.523438 9.203125 -9.609375 C 9.585938 -8.691406 9.78125 -7.59375 9.78125 -6.3125 C 9.78125 -4.9375 9.59375 -3.765625 9.21875 -2.796875 C 8.84375 -1.828125 8.289062 -1.085938 7.5625 -0.578125 C 6.84375 -0.0664062 5.96875 0.1875 4.9375 0.1875 Z M 5.15625 -5.640625 C 5.613281 -5.640625 6.046875 -5.742188 6.453125 -5.953125 C 6.859375 -6.171875 7.191406 -6.453125 7.453125 -6.796875 C 7.710938 -7.140625 7.84375 -7.519531 7.84375 -7.9375 C 7.84375 -8.570312 7.734375 -9.128906 7.515625 -9.609375 C 7.296875 -10.097656 6.984375 -10.476562 6.578125 -10.75 C 6.171875 -11.03125 5.691406 -11.171875 5.140625 -11.171875 C 4.648438 -11.171875 4.210938 -11.050781 3.828125 -10.8125 C 3.441406 -10.570312 3.140625 -10.238281 2.921875 -9.8125 C 2.703125 -9.394531 2.59375 -8.90625 2.59375 -8.34375 C 2.59375 -7.519531 2.8125 -6.863281 3.25 -6.375 C 3.6875 -5.882812 4.320312 -5.640625 5.15625 -5.640625 Z M 5.15625 -5.640625 "/></g></g></g><g fill="#161616" fill-opacity="1"><g transform="translate(267.313722, 232.1354)"><g><path d="M 1.984375 -12.28125 L 9.3125 -12.28125 L 9.28125 -10.921875 L 3.328125 -10.921875 L 3.015625 -6.953125 C 3.421875 -7.335938 3.863281 -7.609375 4.34375 -7.765625 C 4.832031 -7.929688 5.359375 -8.015625 5.921875 -8.015625 C 6.671875 -8.015625 7.359375 -7.859375 7.984375 -7.546875 C 8.609375 -7.242188 9.109375 -6.796875 9.484375 -6.203125 C 9.867188 -5.617188 10.0625 -4.890625 10.0625 -4.015625 C 10.0625 -3.171875 9.875 -2.429688 9.5 -1.796875 C 9.132812 -1.171875 8.617188 -0.679688 7.953125 -0.328125 C 7.285156 0.015625 6.5 0.1875 5.59375 0.1875 C 4.832031 0.1875 4.128906 0.0546875 3.484375 -0.203125 C 2.835938 -0.472656 2.285156 -0.84375 1.828125 -1.3125 C 1.367188 -1.789062 1.03125 -2.34375 0.8125 -2.96875 L 2.171875 -3.53125 C 2.378906 -3.070312 2.632812 -2.660156 2.9375 -2.296875 C 3.25 -1.929688 3.613281 -1.644531 4.03125 -1.4375 C 4.457031 -1.238281 4.941406 -1.140625 5.484375 -1.140625 C 6.359375 -1.140625 7.054688 -1.390625 7.578125 -1.890625 C 8.109375 -2.398438 8.375 -3.09375 8.375 -3.96875 C 8.375 -4.507812 8.25 -4.984375 8 -5.390625 C 7.757812 -5.796875 7.425781 -6.109375 7 -6.328125 C 6.582031 -6.554688 6.117188 -6.671875 5.609375 -6.671875 C 5.273438 -6.671875 4.960938 -6.640625 4.671875 -6.578125 C 4.378906 -6.523438 4.09375 -6.410156 3.8125 -6.234375 C 3.53125 -6.066406 3.234375 -5.8125 2.921875 -5.46875 C 2.890625 -5.445312 2.863281 -5.4375 2.84375 -5.4375 C 2.820312 -5.445312 2.796875 -5.460938 2.765625 -5.484375 L 1.4375 -5.890625 Z M 1.984375 -12.28125 "/></g></g></g><g fill="#4b706e" fill-opacity="1"><g transform="translate(174.796243, 207.323564)"><g><path d="M 16.21875 0 L 13.765625 0 L 11.15625 -9.609375 C 10.976562 -10.210938 10.726562 -11.289062 10.40625 -12.84375 C 10.21875 -12.007812 10.054688 -11.3125 9.921875 -10.75 C 9.796875 -10.195312 8.820312 -6.613281 7 0 L 4.546875 0 L 0.09375 -15.125 L 2.234375 -15.125 L 4.953125 -5.515625 C 5.273438 -4.316406 5.570312 -3.078125 5.84375 -1.796875 C 6.007812 -2.585938 6.207031 -3.445312 6.4375 -4.375 C 6.664062 -5.3125 7.660156 -8.894531 9.421875 -15.125 L 11.375 -15.125 L 14.015625 -5.703125 C 14.410156 -4.171875 14.722656 -2.867188 14.953125 -1.796875 L 15.046875 -2.171875 C 15.242188 -2.992188 15.398438 -3.664062 15.515625 -4.1875 C 15.640625 -4.707031 16.644531 -8.351562 18.53125 -15.125 L 20.671875 -15.125 Z M 16.21875 0 "/></g></g></g><g fill="#4b706e" fill-opacity="1"><g transform="translate(194.447613, 207.323564)"><g><path d="M 12.03125 0 L 12.03125 -7.015625 L 3.859375 -7.015625 L 3.859375 0 L 1.796875 0 L 1.796875 -15.125 L 3.859375 -15.125 L 3.859375 -8.734375 L 12.03125 -8.734375 L 12.03125 -15.125 L 14.078125 -15.125 L 14.078125 0 Z M 12.03125 0 "/></g></g></g><g fill="#4b706e" fill-opacity="1"><g transform="translate(209.225274, 207.323564)"><g><path d="M 12.53125 0 L 10.796875 -4.421875 L 3.90625 -4.421875 L 2.171875 0 L 0.046875 0 L 6.21875 -15.125 L 8.546875 -15.125 L 14.625 0 Z M 7.359375 -13.578125 L 7.25 -13.28125 C 7.070312 -12.6875 6.8125 -11.925781 6.46875 -11 L 4.53125 -6.015625 L 10.1875 -6.015625 L 8.25 -11.015625 C 8.039062 -11.503906 7.835938 -12.0625 7.640625 -12.6875 Z M 7.359375 -13.578125 "/></g></g></g><g fill="#4b706e" fill-opacity="1"><g transform="translate(222.789869, 207.323564)"><g><path d="M 7.734375 -13.453125 L 7.734375 0 L 5.6875 0 L 5.6875 -13.453125 L 0.5 -13.453125 L 0.5 -15.125 L 12.921875 -15.125 L 12.921875 -13.453125 Z M 7.734375 -13.453125 "/></g></g></g><g fill="#4b706e" fill-opacity="1"><g transform="translate(235.119941, 207.323564)"><g><path d="M 13.65625 -4.171875 C 13.65625 -2.773438 13.109375 -1.691406 12.015625 -0.921875 C 10.921875 -0.160156 9.382812 0.21875 7.40625 0.21875 C 3.71875 0.21875 1.582031 -1.0625 1 -3.625 L 2.984375 -4.03125 C 3.210938 -3.113281 3.695312 -2.441406 4.4375 -2.015625 C 5.1875 -1.597656 6.203125 -1.390625 7.484375 -1.390625 C 8.804688 -1.390625 9.828125 -1.613281 10.546875 -2.0625 C 11.265625 -2.519531 11.625 -3.1875 11.625 -4.0625 C 11.625 -4.5625 11.507812 -4.960938 11.28125 -5.265625 C 11.0625 -5.578125 10.742188 -5.832031 10.328125 -6.03125 C 9.921875 -6.226562 9.4375 -6.394531 8.875 -6.53125 C 8.3125 -6.664062 7.6875 -6.816406 7 -6.984375 C 5.800781 -7.242188 4.890625 -7.503906 4.265625 -7.765625 C 3.648438 -8.035156 3.164062 -8.332031 2.8125 -8.65625 C 2.457031 -8.976562 2.179688 -9.359375 1.984375 -9.796875 C 1.796875 -10.234375 1.703125 -10.734375 1.703125 -11.296875 C 1.703125 -12.597656 2.195312 -13.597656 3.1875 -14.296875 C 4.1875 -14.992188 5.609375 -15.34375 7.453125 -15.34375 C 9.171875 -15.34375 10.484375 -15.078125 11.390625 -14.546875 C 12.296875 -14.023438 12.929688 -13.132812 13.296875 -11.875 L 11.28125 -11.515625 C 11.0625 -12.316406 10.640625 -12.894531 10.015625 -13.25 C 9.390625 -13.613281 8.523438 -13.796875 7.421875 -13.796875 C 6.210938 -13.796875 5.289062 -13.597656 4.65625 -13.203125 C 4.019531 -12.804688 3.703125 -12.207031 3.703125 -11.40625 C 3.703125 -10.945312 3.820312 -10.5625 4.0625 -10.25 C 4.3125 -9.945312 4.671875 -9.691406 5.140625 -9.484375 C 5.609375 -9.273438 6.535156 -9.015625 7.921875 -8.703125 C 8.390625 -8.597656 8.851562 -8.488281 9.3125 -8.375 C 9.769531 -8.269531 10.207031 -8.140625 10.625 -7.984375 C 11.050781 -7.828125 11.445312 -7.644531 11.8125 -7.4375 C 12.1875 -7.226562 12.507812 -6.972656 12.78125 -6.671875 C 13.050781 -6.367188 13.265625 -6.015625 13.421875 -5.609375 C 13.578125 -5.203125 13.65625 -4.722656 13.65625 -4.171875 Z M 13.65625 -4.171875 "/></g></g></g><g fill="#4b706e" fill-opacity="1"><g transform="translate(248.684537, 207.323564)"><g><path d="M 12.53125 0 L 10.796875 -4.421875 L 3.90625 -4.421875 L 2.171875 0 L 0.046875 0 L 6.21875 -15.125 L 8.546875 -15.125 L 14.625 0 Z M 7.359375 -13.578125 L 7.25 -13.28125 C 7.070312 -12.6875 6.8125 -11.925781 6.46875 -11 L 4.53125 -6.015625 L 10.1875 -6.015625 L 8.25 -11.015625 C 8.039062 -11.503906 7.835938 -12.0625 7.640625 -12.6875 Z M 7.359375 -13.578125 "/></g></g></g><g fill="#4b706e" fill-opacity="1"><g transform="translate(262.249132, 207.323564)"><g><path d="M 13.5 -10.578125 C 13.5 -9.140625 13.03125 -8 12.09375 -7.15625 C 11.164062 -6.3125 9.898438 -5.890625 8.296875 -5.890625 L 3.859375 -5.890625 L 3.859375 0 L 1.796875 0 L 1.796875 -15.125 L 8.171875 -15.125 C 9.867188 -15.125 11.179688 -14.722656 12.109375 -13.921875 C 13.035156 -13.128906 13.5 -12.015625 13.5 -10.578125 Z M 11.4375 -10.546875 C 11.4375 -12.503906 10.265625 -13.484375 7.921875 -13.484375 L 3.859375 -13.484375 L 3.859375 -7.515625 L 8.015625 -7.515625 C 10.296875 -7.515625 11.4375 -8.523438 11.4375 -10.546875 Z M 11.4375 -10.546875 "/></g></g></g><g fill="#4b706e" fill-opacity="1"><g transform="translate(275.813728, 207.323564)"><g><path d="M 13.5 -10.578125 C 13.5 -9.140625 13.03125 -8 12.09375 -7.15625 C 11.164062 -6.3125 9.898438 -5.890625 8.296875 -5.890625 L 3.859375 -5.890625 L 3.859375 0 L 1.796875 0 L 1.796875 -15.125 L 8.171875 -15.125 C 9.867188 -15.125 11.179688 -14.722656 12.109375 -13.921875 C 13.035156 -13.128906 13.5 -12.015625 13.5 -10.578125 Z M 11.4375 -10.546875 C 11.4375 -12.503906 10.265625 -13.484375 7.921875 -13.484375 L 3.859375 -13.484375 L 3.859375 -7.515625 L 8.015625 -7.515625 C 10.296875 -7.515625 11.4375 -8.523438 11.4375 -10.546875 Z M 11.4375 -10.546875 "/></g></g></g><g fill="#161616" fill-opacity="1"><g transform="translate(535.797182, 231.509222)"><g><path d="M 8.15625 -8.78125 L 5 0 L 3.5625 0 L 0.390625 -8.78125 L 1.875 -8.78125 L 4.203125 -1.96875 L 4.34375 -1.96875 L 6.6875 -8.78125 Z M 8.15625 -8.78125 "/></g></g></g><g fill="#161616" fill-opacity="1"><g transform="translate(543.830356, 231.509222)"><g><path d="M 2.421875 -4.03125 C 2.421875 -3.46875 2.507812 -2.960938 2.6875 -2.515625 C 2.875 -2.066406 3.15625 -1.707031 3.53125 -1.4375 C 3.914062 -1.175781 4.390625 -1.046875 4.953125 -1.046875 C 5.515625 -1.046875 5.992188 -1.175781 6.390625 -1.4375 C 6.796875 -1.695312 7.054688 -2.070312 7.171875 -2.5625 L 8.65625 -2.5625 C 8.550781 -1.96875 8.3125 -1.46875 7.9375 -1.0625 C 7.570312 -0.65625 7.128906 -0.347656 6.609375 -0.140625 C 6.085938 0.0664062 5.546875 0.171875 4.984375 0.171875 C 4.160156 0.171875 3.4375 -0.00390625 2.8125 -0.359375 C 2.195312 -0.722656 1.710938 -1.238281 1.359375 -1.90625 C 1.003906 -2.570312 0.828125 -3.375 0.828125 -4.3125 C 0.828125 -5.226562 0.984375 -6.035156 1.296875 -6.734375 C 1.617188 -7.429688 2.082031 -7.972656 2.6875 -8.359375 C 3.289062 -8.753906 4.015625 -8.953125 4.859375 -8.953125 C 5.691406 -8.953125 6.394531 -8.769531 6.96875 -8.40625 C 7.539062 -8.050781 7.972656 -7.550781 8.265625 -6.90625 C 8.566406 -6.257812 8.71875 -5.492188 8.71875 -4.609375 L 8.71875 -4.03125 Z M 2.421875 -5.09375 L 7.203125 -5.09375 C 7.203125 -5.59375 7.113281 -6.046875 6.9375 -6.453125 C 6.769531 -6.859375 6.507812 -7.175781 6.15625 -7.40625 C 5.8125 -7.644531 5.378906 -7.765625 4.859375 -7.765625 C 4.304688 -7.765625 3.847656 -7.628906 3.484375 -7.359375 C 3.128906 -7.097656 2.863281 -6.757812 2.6875 -6.34375 C 2.507812 -5.9375 2.421875 -5.519531 2.421875 -5.09375 Z M 2.421875 -5.09375 "/></g></g></g><g fill="#161616" fill-opacity="1"><g transform="translate(552.882565, 231.509222)"><g><path d="M 1.296875 0 L 1.296875 -8.78125 L 2.8125 -8.78125 L 2.8125 -7.5 C 2.957031 -7.75 3.15625 -7.976562 3.40625 -8.1875 C 3.65625 -8.40625 3.957031 -8.578125 4.3125 -8.703125 C 4.675781 -8.835938 5.097656 -8.90625 5.578125 -8.90625 C 6.128906 -8.90625 6.632812 -8.796875 7.09375 -8.578125 C 7.5625 -8.359375 7.9375 -8.015625 8.21875 -7.546875 C 8.5 -7.078125 8.640625 -6.472656 8.640625 -5.734375 L 8.640625 0 L 7.078125 0 L 7.078125 -5.59375 C 7.078125 -6.269531 6.894531 -6.773438 6.53125 -7.109375 C 6.175781 -7.441406 5.710938 -7.609375 5.140625 -7.609375 C 4.742188 -7.609375 4.367188 -7.546875 4.015625 -7.421875 C 3.671875 -7.296875 3.390625 -7.101562 3.171875 -6.84375 C 2.960938 -6.582031 2.859375 -6.257812 2.859375 -5.875 L 2.859375 0 Z M 1.296875 0 "/></g></g></g><g fill="#161616" fill-opacity="1"><g transform="translate(562.172559, 231.509222)"><g><path d="M 5.875 -7.640625 L 3.890625 -7.640625 L 3.890625 -2.171875 C 3.890625 -1.859375 3.921875 -1.628906 3.984375 -1.484375 C 4.054688 -1.347656 4.171875 -1.257812 4.328125 -1.21875 C 4.484375 -1.175781 4.695312 -1.15625 4.96875 -1.15625 L 5.921875 -1.15625 L 5.921875 -0.109375 C 5.816406 -0.0664062 5.65625 -0.03125 5.4375 0 C 5.21875 0.03125 4.945312 0.046875 4.625 0.046875 C 4.019531 0.046875 3.550781 -0.0351562 3.21875 -0.203125 C 2.882812 -0.367188 2.648438 -0.613281 2.515625 -0.9375 C 2.378906 -1.257812 2.3125 -1.65625 2.3125 -2.125 L 2.3125 -7.640625 L 0.890625 -7.640625 L 0.890625 -8.78125 L 2.359375 -8.78125 L 2.75 -11.34375 L 3.890625 -11.34375 L 3.890625 -8.796875 L 5.875 -8.796875 Z M 5.875 -7.640625 "/></g></g></g><g fill="#161616" fill-opacity="1"><g transform="translate(568.498832, 231.509222)"><g><path d="M 3.734375 0.171875 C 3.160156 0.171875 2.65625 0.0703125 2.21875 -0.125 C 1.789062 -0.332031 1.453125 -0.625 1.203125 -1 C 0.953125 -1.382812 0.828125 -1.84375 0.828125 -2.375 C 0.828125 -3.351562 1.164062 -4.078125 1.84375 -4.546875 C 2.53125 -5.023438 3.625 -5.28125 5.125 -5.3125 L 6.6875 -5.359375 L 6.6875 -6.046875 C 6.6875 -6.585938 6.523438 -7.015625 6.203125 -7.328125 C 5.878906 -7.640625 5.378906 -7.796875 4.703125 -7.796875 C 4.203125 -7.785156 3.757812 -7.664062 3.375 -7.4375 C 2.988281 -7.207031 2.738281 -6.828125 2.625 -6.296875 L 1.25 -6.296875 C 1.28125 -6.867188 1.441406 -7.351562 1.734375 -7.75 C 2.023438 -8.144531 2.425781 -8.441406 2.9375 -8.640625 C 3.457031 -8.847656 4.070312 -8.953125 4.78125 -8.953125 C 5.539062 -8.953125 6.175781 -8.84375 6.6875 -8.625 C 7.195312 -8.414062 7.578125 -8.097656 7.828125 -7.671875 C 8.078125 -7.253906 8.203125 -6.738281 8.203125 -6.125 L 8.203125 0 L 6.859375 0 L 6.75 -1.640625 C 6.40625 -0.960938 5.972656 -0.488281 5.453125 -0.21875 C 4.929688 0.0390625 4.359375 0.171875 3.734375 0.171875 Z M 4.203125 -0.953125 C 4.492188 -0.953125 4.785156 -1.003906 5.078125 -1.109375 C 5.367188 -1.222656 5.632812 -1.367188 5.875 -1.546875 C 6.125 -1.734375 6.320312 -1.941406 6.46875 -2.171875 C 6.613281 -2.398438 6.6875 -2.640625 6.6875 -2.890625 L 6.6875 -4.390625 L 5.390625 -4.359375 C 4.710938 -4.347656 4.148438 -4.28125 3.703125 -4.15625 C 3.253906 -4.03125 2.914062 -3.832031 2.6875 -3.5625 C 2.46875 -3.300781 2.359375 -2.957031 2.359375 -2.53125 C 2.359375 -2.039062 2.53125 -1.65625 2.875 -1.375 C 3.21875 -1.09375 3.660156 -0.953125 4.203125 -0.953125 Z M 4.203125 -0.953125 "/></g></g></g><g fill="#161616" fill-opacity="1"><g transform="translate(577.576524, 231.509222)"><g><path d="M 4.421875 0.171875 C 3.804688 0.171875 3.234375 0.078125 2.703125 -0.109375 C 2.179688 -0.304688 1.75 -0.601562 1.40625 -1 C 1.0625 -1.40625 0.84375 -1.925781 0.75 -2.5625 L 2.1875 -2.5625 C 2.257812 -2.207031 2.398438 -1.914062 2.609375 -1.6875 C 2.816406 -1.457031 3.078125 -1.285156 3.390625 -1.171875 C 3.703125 -1.054688 4.039062 -1 4.40625 -1 C 5 -1 5.472656 -1.109375 5.828125 -1.328125 C 6.191406 -1.554688 6.375 -1.898438 6.375 -2.359375 C 6.375 -2.679688 6.28125 -2.9375 6.09375 -3.125 C 5.90625 -3.320312 5.613281 -3.46875 5.21875 -3.5625 L 3.390625 -4.015625 C 2.679688 -4.179688 2.113281 -4.441406 1.6875 -4.796875 C 1.269531 -5.160156 1.0625 -5.671875 1.0625 -6.328125 C 1.050781 -6.835938 1.171875 -7.285156 1.421875 -7.671875 C 1.671875 -8.066406 2.046875 -8.378906 2.546875 -8.609375 C 3.046875 -8.835938 3.664062 -8.953125 4.40625 -8.953125 C 5.351562 -8.953125 6.117188 -8.738281 6.703125 -8.3125 C 7.296875 -7.882812 7.601562 -7.253906 7.625 -6.421875 L 6.234375 -6.421875 C 6.179688 -6.847656 5.992188 -7.179688 5.671875 -7.421875 C 5.359375 -7.671875 4.929688 -7.796875 4.390625 -7.796875 C 3.828125 -7.796875 3.367188 -7.679688 3.015625 -7.453125 C 2.671875 -7.234375 2.5 -6.890625 2.5 -6.421875 C 2.5 -6.109375 2.625 -5.863281 2.875 -5.6875 C 3.125 -5.507812 3.488281 -5.359375 3.96875 -5.234375 L 5.734375 -4.796875 C 6.140625 -4.691406 6.472656 -4.550781 6.734375 -4.375 C 7.003906 -4.195312 7.210938 -4 7.359375 -3.78125 C 7.515625 -3.570312 7.625 -3.347656 7.6875 -3.109375 C 7.757812 -2.878906 7.796875 -2.65625 7.796875 -2.4375 C 7.796875 -1.894531 7.660156 -1.429688 7.390625 -1.046875 C 7.117188 -0.660156 6.734375 -0.359375 6.234375 -0.140625 C 5.734375 0.0664062 5.128906 0.171875 4.421875 0.171875 Z M 4.421875 0.171875 "/></g></g></g><g fill="#161616" fill-opacity="1"><g transform="translate(585.754063, 231.509222)"><g><path d="M 11.109375 0.59375 C 10.617188 0.96875 10.035156 1.273438 9.359375 1.515625 C 8.691406 1.753906 7.960938 1.875 7.171875 1.875 C 6.171875 1.875 5.269531 1.710938 4.46875 1.390625 C 3.675781 1.066406 3.003906 0.617188 2.453125 0.046875 C 1.898438 -0.515625 1.476562 -1.171875 1.1875 -1.921875 C 0.894531 -2.671875 0.75 -3.472656 0.75 -4.328125 C 0.75 -5.222656 0.90625 -6.066406 1.21875 -6.859375 C 1.539062 -7.648438 1.992188 -8.351562 2.578125 -8.96875 C 3.171875 -9.582031 3.878906 -10.0625 4.703125 -10.40625 C 5.523438 -10.757812 6.4375 -10.9375 7.4375 -10.9375 C 8.164062 -10.9375 8.875 -10.832031 9.5625 -10.625 C 10.257812 -10.414062 10.890625 -10.097656 11.453125 -9.671875 C 12.015625 -9.242188 12.460938 -8.691406 12.796875 -8.015625 C 13.128906 -7.347656 13.296875 -6.550781 13.296875 -5.625 C 13.296875 -4.78125 13.15625 -4.035156 12.875 -3.390625 C 12.601562 -2.742188 12.222656 -2.238281 11.734375 -1.875 C 11.242188 -1.519531 10.695312 -1.34375 10.09375 -1.34375 C 9.644531 -1.34375 9.300781 -1.414062 9.0625 -1.5625 C 8.832031 -1.71875 8.671875 -1.929688 8.578125 -2.203125 C 8.554688 -2.273438 8.53125 -2.3125 8.5 -2.3125 C 8.476562 -2.3125 8.441406 -2.28125 8.390625 -2.21875 C 8.148438 -1.90625 7.835938 -1.640625 7.453125 -1.421875 C 7.078125 -1.210938 6.628906 -1.109375 6.109375 -1.109375 C 5.679688 -1.109375 5.285156 -1.226562 4.921875 -1.46875 C 4.554688 -1.707031 4.265625 -2.046875 4.046875 -2.484375 C 3.835938 -2.921875 3.734375 -3.4375 3.734375 -4.03125 C 3.734375 -4.726562 3.867188 -5.363281 4.140625 -5.9375 C 4.410156 -6.519531 4.789062 -6.984375 5.28125 -7.328125 C 5.769531 -7.679688 6.332031 -7.859375 6.96875 -7.859375 C 7.425781 -7.859375 7.804688 -7.765625 8.109375 -7.578125 C 8.410156 -7.390625 8.660156 -7.144531 8.859375 -6.84375 C 8.878906 -6.820312 8.898438 -6.816406 8.921875 -6.828125 C 8.953125 -6.835938 8.96875 -6.863281 8.96875 -6.90625 L 9.109375 -7.4375 L 10.1875 -7.4375 L 9.546875 -3.671875 C 9.460938 -3.191406 9.476562 -2.859375 9.59375 -2.671875 C 9.71875 -2.492188 9.914062 -2.40625 10.1875 -2.40625 C 10.53125 -2.40625 10.847656 -2.523438 11.140625 -2.765625 C 11.441406 -3.015625 11.679688 -3.375 11.859375 -3.84375 C 12.046875 -4.3125 12.140625 -4.875 12.140625 -5.53125 C 12.140625 -6.320312 12 -7 11.71875 -7.5625 C 11.445312 -8.125 11.082031 -8.578125 10.625 -8.921875 C 10.175781 -9.265625 9.671875 -9.515625 9.109375 -9.671875 C 8.554688 -9.828125 8 -9.90625 7.4375 -9.90625 C 6.539062 -9.90625 5.75 -9.753906 5.0625 -9.453125 C 4.382812 -9.160156 3.8125 -8.753906 3.34375 -8.234375 C 2.875 -7.722656 2.519531 -7.128906 2.28125 -6.453125 C 2.039062 -5.785156 1.921875 -5.070312 1.921875 -4.3125 C 1.921875 -3.570312 2.039062 -2.890625 2.28125 -2.265625 C 2.519531 -1.640625 2.867188 -1.09375 3.328125 -0.625 C 3.796875 -0.15625 4.367188 0.207031 5.046875 0.46875 C 5.734375 0.726562 6.519531 0.859375 7.40625 0.859375 C 7.914062 0.859375 8.347656 0.8125 8.703125 0.71875 C 9.054688 0.625 9.375 0.492188 9.65625 0.328125 C 9.9375 0.160156 10.222656 -0.015625 10.515625 -0.203125 Z M 5.03125 -4.125 C 5.03125 -3.550781 5.144531 -3.085938 5.375 -2.734375 C 5.601562 -2.390625 5.929688 -2.21875 6.359375 -2.21875 C 6.710938 -2.21875 7.039062 -2.320312 7.34375 -2.53125 C 7.65625 -2.75 7.910156 -3.03125 8.109375 -3.375 C 8.316406 -3.71875 8.445312 -4.09375 8.5 -4.5 C 8.550781 -4.988281 8.515625 -5.398438 8.390625 -5.734375 C 8.273438 -6.066406 8.09375 -6.316406 7.84375 -6.484375 C 7.601562 -6.660156 7.335938 -6.75 7.046875 -6.75 C 6.648438 -6.75 6.300781 -6.628906 6 -6.390625 C 5.695312 -6.148438 5.457031 -5.832031 5.28125 -5.4375 C 5.113281 -5.039062 5.03125 -4.601562 5.03125 -4.125 Z M 5.03125 -4.125 "/></g></g></g><g fill="#161616" fill-opacity="1"><g transform="translate(599.307049, 231.509222)"><g><path d="M 4.421875 0.171875 C 3.804688 0.171875 3.234375 0.078125 2.703125 -0.109375 C 2.179688 -0.304688 1.75 -0.601562 1.40625 -1 C 1.0625 -1.40625 0.84375 -1.925781 0.75 -2.5625 L 2.1875 -2.5625 C 2.257812 -2.207031 2.398438 -1.914062 2.609375 -1.6875 C 2.816406 -1.457031 3.078125 -1.285156 3.390625 -1.171875 C 3.703125 -1.054688 4.039062 -1 4.40625 -1 C 5 -1 5.472656 -1.109375 5.828125 -1.328125 C 6.191406 -1.554688 6.375 -1.898438 6.375 -2.359375 C 6.375 -2.679688 6.28125 -2.9375 6.09375 -3.125 C 5.90625 -3.320312 5.613281 -3.46875 5.21875 -3.5625 L 3.390625 -4.015625 C 2.679688 -4.179688 2.113281 -4.441406 1.6875 -4.796875 C 1.269531 -5.160156 1.0625 -5.671875 1.0625 -6.328125 C 1.050781 -6.835938 1.171875 -7.285156 1.421875 -7.671875 C 1.671875 -8.066406 2.046875 -8.378906 2.546875 -8.609375 C 3.046875 -8.835938 3.664062 -8.953125 4.40625 -8.953125 C 5.351562 -8.953125 6.117188 -8.738281 6.703125 -8.3125 C 7.296875 -7.882812 7.601562 -7.253906 7.625 -6.421875 L 6.234375 -6.421875 C 6.179688 -6.847656 5.992188 -7.179688 5.671875 -7.421875 C 5.359375 -7.671875 4.929688 -7.796875 4.390625 -7.796875 C 3.828125 -7.796875 3.367188 -7.679688 3.015625 -7.453125 C 2.671875 -7.234375 2.5 -6.890625 2.5 -6.421875 C 2.5 -6.109375 2.625 -5.863281 2.875 -5.6875 C 3.125 -5.507812 3.488281 -5.359375 3.96875 -5.234375 L 5.734375 -4.796875 C 6.140625 -4.691406 6.472656 -4.550781 6.734375 -4.375 C 7.003906 -4.195312 7.210938 -4 7.359375 -3.78125 C 7.515625 -3.570312 7.625 -3.347656 7.6875 -3.109375 C 7.757812 -2.878906 7.796875 -2.65625 7.796875 -2.4375 C 7.796875 -1.894531 7.660156 -1.429688 7.390625 -1.046875 C 7.117188 -0.660156 6.734375 -0.359375 6.234375 -0.140625 C 5.734375 0.0664062 5.128906 0.171875 4.421875 0.171875 Z M 4.421875 0.171875 "/></g></g></g><g fill="#161616" fill-opacity="1"><g transform="translate(607.484587, 231.509222)"><g><path d="M 2.421875 -4.03125 C 2.421875 -3.46875 2.507812 -2.960938 2.6875 -2.515625 C 2.875 -2.066406 3.15625 -1.707031 3.53125 -1.4375 C 3.914062 -1.175781 4.390625 -1.046875 4.953125 -1.046875 C 5.515625 -1.046875 5.992188 -1.175781 6.390625 -1.4375 C 6.796875 -1.695312 7.054688 -2.070312 7.171875 -2.5625 L 8.65625 -2.5625 C 8.550781 -1.96875 8.3125 -1.46875 7.9375 -1.0625 C 7.570312 -0.65625 7.128906 -0.347656 6.609375 -0.140625 C 6.085938 0.0664062 5.546875 0.171875 4.984375 0.171875 C 4.160156 0.171875 3.4375 -0.00390625 2.8125 -0.359375 C 2.195312 -0.722656 1.710938 -1.238281 1.359375 -1.90625 C 1.003906 -2.570312 0.828125 -3.375 0.828125 -4.3125 C 0.828125 -5.226562 0.984375 -6.035156 1.296875 -6.734375 C 1.617188 -7.429688 2.082031 -7.972656 2.6875 -8.359375 C 3.289062 -8.753906 4.015625 -8.953125 4.859375 -8.953125 C 5.691406 -8.953125 6.394531 -8.769531 6.96875 -8.40625 C 7.539062 -8.050781 7.972656 -7.550781 8.265625 -6.90625 C 8.566406 -6.257812 8.71875 -5.492188 8.71875 -4.609375 L 8.71875 -4.03125 Z M 2.421875 -5.09375 L 7.203125 -5.09375 C 7.203125 -5.59375 7.113281 -6.046875 6.9375 -6.453125 C 6.769531 -6.859375 6.507812 -7.175781 6.15625 -7.40625 C 5.8125 -7.644531 5.378906 -7.765625 4.859375 -7.765625 C 4.304688 -7.765625 3.847656 -7.628906 3.484375 -7.359375 C 3.128906 -7.097656 2.863281 -6.757812 2.6875 -6.34375 C 2.507812 -5.9375 2.421875 -5.519531 2.421875 -5.09375 Z M 2.421875 -5.09375 "/></g></g></g><g fill="#161616" fill-opacity="1"><g transform="translate(616.536794, 231.509222)"><g><path d="M 1.296875 0 L 1.296875 -8.78125 L 2.796875 -8.78125 L 2.796875 -7.09375 C 2.941406 -7.507812 3.144531 -7.851562 3.40625 -8.125 C 3.675781 -8.40625 3.984375 -8.613281 4.328125 -8.75 C 4.671875 -8.882812 5.023438 -8.953125 5.390625 -8.953125 C 5.523438 -8.953125 5.65625 -8.941406 5.78125 -8.921875 C 5.90625 -8.910156 6 -8.882812 6.0625 -8.84375 L 6.0625 -7.3125 C 5.976562 -7.351562 5.867188 -7.378906 5.734375 -7.390625 C 5.597656 -7.410156 5.488281 -7.421875 5.40625 -7.421875 C 5.050781 -7.441406 4.71875 -7.421875 4.40625 -7.359375 C 4.101562 -7.296875 3.835938 -7.179688 3.609375 -7.015625 C 3.378906 -6.859375 3.195312 -6.648438 3.0625 -6.390625 C 2.925781 -6.140625 2.859375 -5.828125 2.859375 -5.453125 L 2.859375 0 Z M 1.296875 0 "/></g></g></g><g fill="#161616" fill-opacity="1"><g transform="translate(622.608309, 231.509222)"><g><path d="M 8.15625 -8.78125 L 5 0 L 3.5625 0 L 0.390625 -8.78125 L 1.875 -8.78125 L 4.203125 -1.96875 L 4.34375 -1.96875 L 6.6875 -8.78125 Z M 8.15625 -8.78125 "/></g></g></g><g fill="#161616" fill-opacity="1"><g transform="translate(630.641482, 231.509222)"><g><path d="M 3 -8.78125 L 3 0 L 1.484375 0 L 1.484375 -8.78125 Z M 3.03125 -12.265625 L 3.03125 -10.640625 L 1.421875 -10.640625 L 1.421875 -12.265625 Z M 3.03125 -12.265625 "/></g></g></g><g fill="#161616" fill-opacity="1"><g transform="translate(634.589993, 231.509222)"><g><path d="M 5.875 -7.640625 L 3.890625 -7.640625 L 3.890625 -2.171875 C 3.890625 -1.859375 3.921875 -1.628906 3.984375 -1.484375 C 4.054688 -1.347656 4.171875 -1.257812 4.328125 -1.21875 C 4.484375 -1.175781 4.695312 -1.15625 4.96875 -1.15625 L 5.921875 -1.15625 L 5.921875 -0.109375 C 5.816406 -0.0664062 5.65625 -0.03125 5.4375 0 C 5.21875 0.03125 4.945312 0.046875 4.625 0.046875 C 4.019531 0.046875 3.550781 -0.0351562 3.21875 -0.203125 C 2.882812 -0.367188 2.648438 -0.613281 2.515625 -0.9375 C 2.378906 -1.257812 2.3125 -1.65625 2.3125 -2.125 L 2.3125 -7.640625 L 0.890625 -7.640625 L 0.890625 -8.78125 L 2.359375 -8.78125 L 2.75 -11.34375 L 3.890625 -11.34375 L 3.890625 -8.796875 L 5.875 -8.796875 Z M 5.875 -7.640625 "/></g></g></g><g fill="#161616" fill-opacity="1"><g transform="translate(640.916266, 231.509222)"><g><path d="M 2.421875 -4.03125 C 2.421875 -3.46875 2.507812 -2.960938 2.6875 -2.515625 C 2.875 -2.066406 3.15625 -1.707031 3.53125 -1.4375 C 3.914062 -1.175781 4.390625 -1.046875 4.953125 -1.046875 C 5.515625 -1.046875 5.992188 -1.175781 6.390625 -1.4375 C 6.796875 -1.695312 7.054688 -2.070312 7.171875 -2.5625 L 8.65625 -2.5625 C 8.550781 -1.96875 8.3125 -1.46875 7.9375 -1.0625 C 7.570312 -0.65625 7.128906 -0.347656 6.609375 -0.140625 C 6.085938 0.0664062 5.546875 0.171875 4.984375 0.171875 C 4.160156 0.171875 3.4375 -0.00390625 2.8125 -0.359375 C 2.195312 -0.722656 1.710938 -1.238281 1.359375 -1.90625 C 1.003906 -2.570312 0.828125 -3.375 0.828125 -4.3125 C 0.828125 -5.226562 0.984375 -6.035156 1.296875 -6.734375 C 1.617188 -7.429688 2.082031 -7.972656 2.6875 -8.359375 C 3.289062 -8.753906 4.015625 -8.953125 4.859375 -8.953125 C 5.691406 -8.953125 6.394531 -8.769531 6.96875 -8.40625 C 7.539062 -8.050781 7.972656 -7.550781 8.265625 -6.90625 C 8.566406 -6.257812 8.71875 -5.492188 8.71875 -4.609375 L 8.71875 -4.03125 Z M 2.421875 -5.09375 L 7.203125 -5.09375 C 7.203125 -5.59375 7.113281 -6.046875 6.9375 -6.453125 C 6.769531 -6.859375 6.507812 -7.175781 6.15625 -7.40625 C 5.8125 -7.644531 5.378906 -7.765625 4.859375 -7.765625 C 4.304688 -7.765625 3.847656 -7.628906 3.484375 -7.359375 C 3.128906 -7.097656 2.863281 -6.757812 2.6875 -6.34375 C 2.507812 -5.9375 2.421875 -5.519531 2.421875 -5.09375 Z M 2.421875 -5.09375 "/></g></g></g><g fill="#161616" fill-opacity="1"><g transform="translate(649.968473, 231.509222)"><g><path d="M 9.015625 0 L 7.34375 0 L 4.59375 -4.40625 L 2.859375 -2.609375 L 2.859375 0 L 1.296875 0 L 1.296875 -12.625 L 2.859375 -12.625 L 2.859375 -4.390625 L 6.984375 -8.78125 L 8.796875 -8.78125 L 5.625 -5.4375 Z M 9.015625 0 "/></g></g></g><g fill="#161616" fill-opacity="1"><g transform="translate(659.037666, 231.509222)"><g><path d="M 0.9375 0 L 0.9375 -2 L 2.796875 -2 L 2.796875 0 Z M 0.9375 0 "/></g></g></g><g fill="#161616" fill-opacity="1"><g transform="translate(662.357762, 231.509222)"><g><path d="M 4.796875 -8.953125 C 5.421875 -8.953125 5.984375 -8.832031 6.484375 -8.59375 C 6.992188 -8.351562 7.410156 -8.007812 7.734375 -7.5625 C 8.054688 -7.125 8.253906 -6.601562 8.328125 -6 L 6.9375 -6 C 6.882812 -6.3125 6.765625 -6.59375 6.578125 -6.84375 C 6.398438 -7.101562 6.160156 -7.304688 5.859375 -7.453125 C 5.554688 -7.609375 5.207031 -7.6875 4.8125 -7.6875 C 4.050781 -7.6875 3.4375 -7.414062 2.96875 -6.875 C 2.5 -6.332031 2.265625 -5.5 2.265625 -4.375 C 2.265625 -3.363281 2.476562 -2.550781 2.90625 -1.9375 C 3.34375 -1.332031 3.984375 -1.03125 4.828125 -1.03125 C 5.234375 -1.03125 5.582031 -1.109375 5.875 -1.265625 C 6.175781 -1.421875 6.414062 -1.625 6.59375 -1.875 C 6.78125 -2.132812 6.898438 -2.410156 6.953125 -2.703125 L 8.3125 -2.703125 C 8.238281 -2.117188 8.039062 -1.609375 7.71875 -1.171875 C 7.394531 -0.742188 6.984375 -0.410156 6.484375 -0.171875 C 5.984375 0.0546875 5.421875 0.171875 4.796875 0.171875 C 4.015625 0.171875 3.316406 0 2.703125 -0.34375 C 2.097656 -0.6875 1.617188 -1.195312 1.265625 -1.875 C 0.921875 -2.550781 0.75 -3.378906 0.75 -4.359375 C 0.75 -5.273438 0.90625 -6.078125 1.21875 -6.765625 C 1.539062 -7.453125 2 -7.988281 2.59375 -8.375 C 3.195312 -8.757812 3.929688 -8.953125 4.796875 -8.953125 Z M 4.796875 -8.953125 "/></g></g></g><g fill="#161616" fill-opacity="1"><g transform="translate(671.010845, 231.509222)"><g><path d="M 4.796875 0.171875 C 3.984375 0.171875 3.273438 0 2.671875 -0.34375 C 2.066406 -0.695312 1.59375 -1.207031 1.25 -1.875 C 0.914062 -2.550781 0.75 -3.378906 0.75 -4.359375 C 0.75 -5.273438 0.90625 -6.078125 1.21875 -6.765625 C 1.53125 -7.453125 1.988281 -7.988281 2.59375 -8.375 C 3.195312 -8.757812 3.929688 -8.953125 4.796875 -8.953125 C 5.597656 -8.953125 6.296875 -8.773438 6.890625 -8.421875 C 7.492188 -8.066406 7.957031 -7.546875 8.28125 -6.859375 C 8.613281 -6.171875 8.78125 -5.335938 8.78125 -4.359375 C 8.78125 -3.460938 8.628906 -2.675781 8.328125 -2 C 8.023438 -1.320312 7.578125 -0.789062 6.984375 -0.40625 C 6.390625 -0.0195312 5.660156 0.171875 4.796875 0.171875 Z M 4.796875 -1.0625 C 5.316406 -1.0625 5.757812 -1.195312 6.125 -1.46875 C 6.488281 -1.738281 6.765625 -2.117188 6.953125 -2.609375 C 7.140625 -3.109375 7.234375 -3.703125 7.234375 -4.390625 C 7.234375 -5.015625 7.148438 -5.578125 6.984375 -6.078125 C 6.816406 -6.585938 6.550781 -6.988281 6.1875 -7.28125 C 5.832031 -7.570312 5.367188 -7.71875 4.796875 -7.71875 C 4.253906 -7.71875 3.800781 -7.582031 3.4375 -7.3125 C 3.070312 -7.050781 2.789062 -6.671875 2.59375 -6.171875 C 2.40625 -5.679688 2.3125 -5.085938 2.3125 -4.390625 C 2.3125 -3.773438 2.394531 -3.210938 2.5625 -2.703125 C 2.738281 -2.203125 3.007812 -1.800781 3.375 -1.5 C 3.738281 -1.207031 4.210938 -1.0625 4.796875 -1.0625 Z M 4.796875 -1.0625 "/></g></g></g><g fill="#161616" fill-opacity="1"><g transform="translate(680.046078, 231.509222)"><g><path d="M 1.296875 0 L 1.296875 -8.78125 L 2.8125 -8.78125 L 2.8125 -7.5 C 3.050781 -7.882812 3.382812 -8.222656 3.8125 -8.515625 C 4.238281 -8.804688 4.789062 -8.953125 5.46875 -8.953125 C 5.78125 -8.953125 6.101562 -8.894531 6.4375 -8.78125 C 6.769531 -8.675781 7.070312 -8.515625 7.34375 -8.296875 C 7.625 -8.085938 7.84375 -7.828125 8 -7.515625 C 8.269531 -7.941406 8.632812 -8.285156 9.09375 -8.546875 C 9.5625 -8.816406 10.085938 -8.953125 10.671875 -8.953125 C 10.984375 -8.953125 11.304688 -8.90625 11.640625 -8.8125 C 11.972656 -8.71875 12.28125 -8.550781 12.5625 -8.3125 C 12.851562 -8.082031 13.085938 -7.757812 13.265625 -7.34375 C 13.441406 -6.925781 13.53125 -6.390625 13.53125 -5.734375 L 13.53125 0 L 11.953125 0 L 11.953125 -5.59375 C 11.953125 -6.125 11.867188 -6.535156 11.703125 -6.828125 C 11.535156 -7.117188 11.3125 -7.320312 11.03125 -7.4375 C 10.757812 -7.5625 10.46875 -7.625 10.15625 -7.625 C 9.882812 -7.625 9.59375 -7.566406 9.28125 -7.453125 C 8.976562 -7.347656 8.71875 -7.164062 8.5 -6.90625 C 8.289062 -6.65625 8.1875 -6.3125 8.1875 -5.875 L 8.1875 0 L 6.625 0 L 6.625 -6.046875 C 6.625 -6.390625 6.53125 -6.675781 6.34375 -6.90625 C 6.164062 -7.144531 5.9375 -7.320312 5.65625 -7.4375 C 5.382812 -7.5625 5.113281 -7.625 4.84375 -7.625 C 4.539062 -7.625 4.238281 -7.5625 3.9375 -7.4375 C 3.632812 -7.320312 3.378906 -7.132812 3.171875 -6.875 C 2.960938 -6.613281 2.859375 -6.28125 2.859375 -5.875 L 2.859375 0 Z M 1.296875 0 "/></g></g></g><g fill="#161616" fill-opacity="1"><g transform="translate(694.227472, 231.509222)"><g><path d="M 0.9375 0 L 0.9375 -2 L 2.796875 -2 L 2.796875 0 Z M 0.9375 0 "/></g></g></g><g fill="#161616" fill-opacity="1"><g transform="translate(697.547568, 231.509222)"><g><path d="M 3.734375 0.171875 C 3.160156 0.171875 2.65625 0.0703125 2.21875 -0.125 C 1.789062 -0.332031 1.453125 -0.625 1.203125 -1 C 0.953125 -1.382812 0.828125 -1.84375 0.828125 -2.375 C 0.828125 -3.351562 1.164062 -4.078125 1.84375 -4.546875 C 2.53125 -5.023438 3.625 -5.28125 5.125 -5.3125 L 6.6875 -5.359375 L 6.6875 -6.046875 C 6.6875 -6.585938 6.523438 -7.015625 6.203125 -7.328125 C 5.878906 -7.640625 5.378906 -7.796875 4.703125 -7.796875 C 4.203125 -7.785156 3.757812 -7.664062 3.375 -7.4375 C 2.988281 -7.207031 2.738281 -6.828125 2.625 -6.296875 L 1.25 -6.296875 C 1.28125 -6.867188 1.441406 -7.351562 1.734375 -7.75 C 2.023438 -8.144531 2.425781 -8.441406 2.9375 -8.640625 C 3.457031 -8.847656 4.070312 -8.953125 4.78125 -8.953125 C 5.539062 -8.953125 6.175781 -8.84375 6.6875 -8.625 C 7.195312 -8.414062 7.578125 -8.097656 7.828125 -7.671875 C 8.078125 -7.253906 8.203125 -6.738281 8.203125 -6.125 L 8.203125 0 L 6.859375 0 L 6.75 -1.640625 C 6.40625 -0.960938 5.972656 -0.488281 5.453125 -0.21875 C 4.929688 0.0390625 4.359375 0.171875 3.734375 0.171875 Z M 4.203125 -0.953125 C 4.492188 -0.953125 4.785156 -1.003906 5.078125 -1.109375 C 5.367188 -1.222656 5.632812 -1.367188 5.875 -1.546875 C 6.125 -1.734375 6.320312 -1.941406 6.46875 -2.171875 C 6.613281 -2.398438 6.6875 -2.640625 6.6875 -2.890625 L 6.6875 -4.390625 L 5.390625 -4.359375 C 4.710938 -4.347656 4.148438 -4.28125 3.703125 -4.15625 C 3.253906 -4.03125 2.914062 -3.832031 2.6875 -3.5625 C 2.46875 -3.300781 2.359375 -2.957031 2.359375 -2.53125 C 2.359375 -2.039062 2.53125 -1.65625 2.875 -1.375 C 3.21875 -1.09375 3.660156 -0.953125 4.203125 -0.953125 Z M 4.203125 -0.953125 "/></g></g></g><g fill="#161616" fill-opacity="1"><g transform="translate(706.62526, 231.509222)"><g><path d="M 1.296875 0 L 1.296875 -8.78125 L 2.796875 -8.78125 L 2.796875 -7.09375 C 2.941406 -7.507812 3.144531 -7.851562 3.40625 -8.125 C 3.675781 -8.40625 3.984375 -8.613281 4.328125 -8.75 C 4.671875 -8.882812 5.023438 -8.953125 5.390625 -8.953125 C 5.523438 -8.953125 5.65625 -8.941406 5.78125 -8.921875 C 5.90625 -8.910156 6 -8.882812 6.0625 -8.84375 L 6.0625 -7.3125 C 5.976562 -7.351562 5.867188 -7.378906 5.734375 -7.390625 C 5.597656 -7.410156 5.488281 -7.421875 5.40625 -7.421875 C 5.050781 -7.441406 4.71875 -7.421875 4.40625 -7.359375 C 4.101562 -7.296875 3.835938 -7.179688 3.609375 -7.015625 C 3.378906 -6.859375 3.195312 -6.648438 3.0625 -6.390625 C 2.925781 -6.140625 2.859375 -5.828125 2.859375 -5.453125 L 2.859375 0 Z M 1.296875 0 "/></g></g></g><g fill="#4b706e" fill-opacity="1"><g transform="translate(535.797182, 207.323564)"><g><path d="M 1.796875 0 L 1.796875 -15.125 L 13.28125 -15.125 L 13.28125 -13.453125 L 3.859375 -13.453125 L 3.859375 -8.59375 L 12.640625 -8.59375 L 12.640625 -6.9375 L 3.859375 -6.9375 L 3.859375 -1.671875 L 13.71875 -1.671875 L 13.71875 0 Z M 1.796875 0 "/></g></g></g><g fill="#4b706e" fill-opacity="1"><g transform="translate(549.361777, 207.323564)"><g><path d="M 14.65625 0 L 14.65625 -10.09375 C 14.65625 -11.207031 14.691406 -12.28125 14.765625 -13.3125 C 14.410156 -12.03125 14.09375 -11.03125 13.8125 -10.3125 L 9.90625 0 L 8.46875 0 L 4.515625 -10.3125 L 3.90625 -12.125 L 3.546875 -13.3125 L 3.578125 -12.125 L 3.625 -10.09375 L 3.625 0 L 1.796875 0 L 1.796875 -15.125 L 4.5 -15.125 L 8.515625 -4.640625 C 8.660156 -4.210938 8.800781 -3.757812 8.9375 -3.28125 C 9.070312 -2.800781 9.160156 -2.453125 9.203125 -2.234375 C 9.253906 -2.515625 9.367188 -2.945312 9.546875 -3.53125 C 9.734375 -4.113281 9.859375 -4.484375 9.921875 -4.640625 L 13.875 -15.125 L 16.515625 -15.125 L 16.515625 0 Z M 14.65625 0 "/></g></g></g><g fill="#4b706e" fill-opacity="1"><g transform="translate(566.576287, 207.323564)"><g><path d="M 12.53125 0 L 10.796875 -4.421875 L 3.90625 -4.421875 L 2.171875 0 L 0.046875 0 L 6.21875 -15.125 L 8.546875 -15.125 L 14.625 0 Z M 7.359375 -13.578125 L 7.25 -13.28125 C 7.070312 -12.6875 6.8125 -11.925781 6.46875 -11 L 4.53125 -6.015625 L 10.1875 -6.015625 L 8.25 -11.015625 C 8.039062 -11.503906 7.835938 -12.0625 7.640625 -12.6875 Z M 7.359375 -13.578125 "/></g></g></g><g fill="#4b706e" fill-opacity="1"><g transform="translate(580.140882, 207.323564)"><g><path d="M 2.03125 0 L 2.03125 -15.125 L 4.078125 -15.125 L 4.078125 0 Z M 2.03125 0 "/></g></g></g><g fill="#4b706e" fill-opacity="1"><g transform="translate(585.149656, 207.323564)"><g><path d="M 1.796875 0 L 1.796875 -15.125 L 3.859375 -15.125 L 3.859375 -1.671875 L 11.5 -1.671875 L 11.5 0 Z M 1.796875 0 "/></g></g></g><g fill="#161616" fill-opacity="1"><g transform="translate(174.796243, 369.920727)"><g><path d="M 4.6875 -12.921875 C 4.113281 -11.816406 3.640625 -10.613281 3.265625 -9.3125 C 2.890625 -8.007812 2.703125 -6.6875 2.703125 -5.34375 C 2.703125 -4.070312 2.859375 -2.828125 3.171875 -1.609375 C 3.492188 -0.398438 3.953125 0.832031 4.546875 2.09375 L 3.484375 2.09375 C 3.015625 1.300781 2.609375 0.519531 2.265625 -0.25 C 1.921875 -1.03125 1.65625 -1.835938 1.46875 -2.671875 C 1.28125 -3.503906 1.1875 -4.398438 1.1875 -5.359375 C 1.1875 -6.765625 1.410156 -8.113281 1.859375 -9.40625 C 2.316406 -10.695312 2.898438 -11.867188 3.609375 -12.921875 Z M 4.6875 -12.921875 "/></g></g></g><g fill="#161616" fill-opacity="1"><g transform="translate(179.424116, 369.920727)"><g><path d="M 3.15625 0 L 3.15625 -9.78125 L 0.796875 -9.78125 L 0.796875 -10.796875 C 1.523438 -10.796875 2.09375 -10.847656 2.5 -10.953125 C 2.90625 -11.066406 3.195312 -11.234375 3.375 -11.453125 C 3.550781 -11.671875 3.644531 -11.945312 3.65625 -12.28125 L 4.78125 -12.28125 L 4.78125 0 Z M 3.15625 0 "/></g></g></g><g fill="#161616" fill-opacity="1"><g transform="translate(185.826823, 369.920727)"><g><path d="M 3.15625 0 L 3.15625 -9.78125 L 0.796875 -9.78125 L 0.796875 -10.796875 C 1.523438 -10.796875 2.09375 -10.847656 2.5 -10.953125 C 2.90625 -11.066406 3.195312 -11.234375 3.375 -11.453125 C 3.550781 -11.671875 3.644531 -11.945312 3.65625 -12.28125 L 4.78125 -12.28125 L 4.78125 0 Z M 3.15625 0 "/></g></g></g><g fill="#161616" fill-opacity="1"><g transform="translate(192.22953, 369.920727)"><g><path d="M 0.328125 -12.921875 C 0.898438 -11.816406 1.375 -10.613281 1.75 -9.3125 C 2.125 -8.007812 2.3125 -6.6875 2.3125 -5.34375 C 2.3125 -4.070312 2.148438 -2.828125 1.828125 -1.609375 C 1.515625 -0.398438 1.0625 0.832031 0.46875 2.09375 L 1.53125 2.09375 C 2 1.300781 2.40625 0.519531 2.75 -0.25 C 3.09375 -1.03125 3.359375 -1.835938 3.546875 -2.671875 C 3.734375 -3.503906 3.828125 -4.398438 3.828125 -5.359375 C 3.828125 -6.765625 3.597656 -8.113281 3.140625 -9.40625 C 2.691406 -10.695312 2.113281 -11.867188 1.40625 -12.921875 Z M 0.328125 -12.921875 "/></g></g></g><g fill="#161616" fill-opacity="1"><g transform="translate(196.967796, 369.920727)"><g/></g></g><g fill="#161616" fill-opacity="1"><g transform="translate(200.372812, 369.920727)"><g><path d="M 1.984375 -12.28125 L 9.3125 -12.28125 L 9.28125 -10.921875 L 3.328125 -10.921875 L 3.015625 -6.953125 C 3.421875 -7.335938 3.863281 -7.609375 4.34375 -7.765625 C 4.832031 -7.929688 5.359375 -8.015625 5.921875 -8.015625 C 6.671875 -8.015625 7.359375 -7.859375 7.984375 -7.546875 C 8.609375 -7.242188 9.109375 -6.796875 9.484375 -6.203125 C 9.867188 -5.617188 10.0625 -4.890625 10.0625 -4.015625 C 10.0625 -3.171875 9.875 -2.429688 9.5 -1.796875 C 9.132812 -1.171875 8.617188 -0.679688 7.953125 -0.328125 C 7.285156 0.015625 6.5 0.1875 5.59375 0.1875 C 4.832031 0.1875 4.128906 0.0546875 3.484375 -0.203125 C 2.835938 -0.472656 2.285156 -0.84375 1.828125 -1.3125 C 1.367188 -1.789062 1.03125 -2.34375 0.8125 -2.96875 L 2.171875 -3.53125 C 2.378906 -3.070312 2.632812 -2.660156 2.9375 -2.296875 C 3.25 -1.929688 3.613281 -1.644531 4.03125 -1.4375 C 4.457031 -1.238281 4.941406 -1.140625 5.484375 -1.140625 C 6.359375 -1.140625 7.054688 -1.390625 7.578125 -1.890625 C 8.109375 -2.398438 8.375 -3.09375 8.375 -3.96875 C 8.375 -4.507812 8.25 -4.984375 8 -5.390625 C 7.757812 -5.796875 7.425781 -6.109375 7 -6.328125 C 6.582031 -6.554688 6.117188 -6.671875 5.609375 -6.671875 C 5.273438 -6.671875 4.960938 -6.640625 4.671875 -6.578125 C 4.378906 -6.523438 4.09375 -6.410156 3.8125 -6.234375 C 3.53125 -6.066406 3.234375 -5.8125 2.921875 -5.46875 C 2.890625 -5.445312 2.863281 -5.4375 2.84375 -5.4375 C 2.820312 -5.445312 2.796875 -5.460938 2.765625 -5.484375 L 1.4375 -5.890625 Z M 1.984375 -12.28125 "/></g></g></g><g fill="#161616" fill-opacity="1"><g transform="translate(210.741282, 369.920727)"><g><path d="M 1.046875 0 L 1.046875 -1.453125 C 1.046875 -2.085938 1.164062 -2.632812 1.40625 -3.09375 C 1.644531 -3.550781 1.957031 -3.953125 2.34375 -4.296875 C 2.726562 -4.640625 3.148438 -4.945312 3.609375 -5.21875 C 4.078125 -5.488281 4.539062 -5.75 5 -6 C 5.457031 -6.25 5.878906 -6.507812 6.265625 -6.78125 C 6.648438 -7.0625 6.957031 -7.375 7.1875 -7.71875 C 7.425781 -8.070312 7.546875 -8.484375 7.546875 -8.953125 C 7.546875 -9.578125 7.328125 -10.082031 6.890625 -10.46875 C 6.453125 -10.863281 5.859375 -11.0625 5.109375 -11.0625 C 4.304688 -11.0625 3.660156 -10.832031 3.171875 -10.375 C 2.691406 -9.925781 2.421875 -9.328125 2.359375 -8.578125 L 0.796875 -8.578125 C 0.804688 -9.285156 0.976562 -9.929688 1.3125 -10.515625 C 1.644531 -11.097656 2.132812 -11.566406 2.78125 -11.921875 C 3.425781 -12.273438 4.222656 -12.453125 5.171875 -12.453125 C 5.992188 -12.453125 6.707031 -12.304688 7.3125 -12.015625 C 7.914062 -11.722656 8.382812 -11.3125 8.71875 -10.78125 C 9.050781 -10.257812 9.21875 -9.648438 9.21875 -8.953125 C 9.21875 -8.328125 9.097656 -7.785156 8.859375 -7.328125 C 8.628906 -6.878906 8.320312 -6.488281 7.9375 -6.15625 C 7.5625 -5.820312 7.144531 -5.523438 6.6875 -5.265625 C 6.238281 -5.003906 5.785156 -4.753906 5.328125 -4.515625 C 4.867188 -4.273438 4.445312 -4.019531 4.0625 -3.75 C 3.6875 -3.488281 3.378906 -3.1875 3.140625 -2.84375 C 2.910156 -2.507812 2.796875 -2.109375 2.796875 -1.640625 L 2.796875 -1.390625 L 9.28125 -1.390625 L 9.28125 0 Z M 1.046875 0 "/></g></g></g><g fill="#161616" fill-opacity="1"><g transform="translate(220.353965, 369.920727)"><g><path d="M 5.625 -12.453125 C 6.300781 -12.453125 6.925781 -12.320312 7.5 -12.0625 C 8.070312 -11.8125 8.546875 -11.445312 8.921875 -10.96875 C 9.304688 -10.5 9.546875 -9.925781 9.640625 -9.25 L 8.15625 -9.25 C 8 -9.832031 7.703125 -10.289062 7.265625 -10.625 C 6.835938 -10.96875 6.296875 -11.140625 5.640625 -11.140625 C 4.921875 -11.140625 4.316406 -10.929688 3.828125 -10.515625 C 3.347656 -10.109375 3 -9.507812 2.78125 -8.71875 C 2.5625 -7.9375 2.484375 -6.96875 2.546875 -5.8125 C 2.703125 -6.226562 2.9375 -6.59375 3.25 -6.90625 C 3.5625 -7.21875 3.925781 -7.457031 4.34375 -7.625 C 4.757812 -7.800781 5.210938 -7.890625 5.703125 -7.890625 C 6.515625 -7.890625 7.222656 -7.734375 7.828125 -7.421875 C 8.429688 -7.109375 8.898438 -6.660156 9.234375 -6.078125 C 9.578125 -5.503906 9.75 -4.816406 9.75 -4.015625 C 9.75 -3.191406 9.578125 -2.460938 9.234375 -1.828125 C 8.890625 -1.203125 8.394531 -0.707031 7.75 -0.34375 C 7.113281 0.0078125 6.359375 0.1875 5.484375 0.1875 C 4.535156 0.1875 3.710938 -0.0546875 3.015625 -0.546875 C 2.316406 -1.046875 1.773438 -1.75 1.390625 -2.65625 C 1.003906 -3.570312 0.8125 -4.671875 0.8125 -5.953125 C 0.8125 -7.265625 0.992188 -8.40625 1.359375 -9.375 C 1.734375 -10.351562 2.273438 -11.109375 2.984375 -11.640625 C 3.703125 -12.179688 4.582031 -12.453125 5.625 -12.453125 Z M 5.453125 -6.625 C 5.003906 -6.625 4.570312 -6.515625 4.15625 -6.296875 C 3.75 -6.085938 3.414062 -5.8125 3.15625 -5.46875 C 2.90625 -5.125 2.78125 -4.742188 2.78125 -4.328125 C 2.769531 -3.703125 2.875 -3.144531 3.09375 -2.65625 C 3.320312 -2.175781 3.640625 -1.796875 4.046875 -1.515625 C 4.453125 -1.242188 4.925781 -1.109375 5.46875 -1.109375 C 5.96875 -1.109375 6.410156 -1.226562 6.796875 -1.46875 C 7.191406 -1.707031 7.5 -2.035156 7.71875 -2.453125 C 7.945312 -2.878906 8.0625 -3.375 8.0625 -3.9375 C 8.0625 -4.488281 7.960938 -4.96875 7.765625 -5.375 C 7.566406 -5.78125 7.269531 -6.085938 6.875 -6.296875 C 6.488281 -6.515625 6.015625 -6.625 5.453125 -6.625 Z M 5.453125 -6.625 "/></g></g></g><g fill="#161616" fill-opacity="1"><g transform="translate(230.41673, 369.920727)"><g><path d="M 0.984375 -8.703125 C 0.984375 -9.492188 1.171875 -10.164062 1.546875 -10.71875 C 1.929688 -11.28125 2.445312 -11.707031 3.09375 -12 C 3.738281 -12.300781 4.445312 -12.453125 5.21875 -12.453125 C 6.070312 -12.453125 6.820312 -12.328125 7.46875 -12.078125 C 8.125 -11.828125 8.632812 -11.46875 9 -11 C 9.363281 -10.53125 9.546875 -9.957031 9.546875 -9.28125 C 9.546875 -8.675781 9.351562 -8.128906 8.96875 -7.640625 C 8.59375 -7.148438 8.003906 -6.765625 7.203125 -6.484375 C 7.742188 -6.335938 8.210938 -6.125 8.609375 -5.84375 C 9.015625 -5.5625 9.328125 -5.210938 9.546875 -4.796875 C 9.773438 -4.390625 9.890625 -3.921875 9.890625 -3.390625 C 9.890625 -2.828125 9.769531 -2.320312 9.53125 -1.875 C 9.300781 -1.4375 8.972656 -1.0625 8.546875 -0.75 C 8.117188 -0.4375 7.613281 -0.195312 7.03125 -0.03125 C 6.457031 0.125 5.832031 0.195312 5.15625 0.1875 C 4.3125 0.175781 3.566406 0.0195312 2.921875 -0.28125 C 2.285156 -0.582031 1.78125 -1.007812 1.40625 -1.5625 C 1.039062 -2.113281 0.84375 -2.769531 0.8125 -3.53125 L 2.390625 -3.53125 C 2.503906 -2.769531 2.8125 -2.179688 3.3125 -1.765625 C 3.820312 -1.359375 4.457031 -1.15625 5.21875 -1.15625 C 5.8125 -1.15625 6.332031 -1.25 6.78125 -1.4375 C 7.226562 -1.632812 7.570312 -1.898438 7.8125 -2.234375 C 8.0625 -2.566406 8.1875 -2.957031 8.1875 -3.40625 C 8.1875 -3.894531 8.050781 -4.304688 7.78125 -4.640625 C 7.507812 -4.984375 7.140625 -5.242188 6.671875 -5.421875 C 6.203125 -5.609375 5.675781 -5.703125 5.09375 -5.703125 L 3.984375 -5.734375 L 3.984375 -7.0625 L 5.046875 -7.09375 C 5.578125 -7.101562 6.054688 -7.203125 6.484375 -7.390625 C 6.910156 -7.585938 7.242188 -7.847656 7.484375 -8.171875 C 7.734375 -8.492188 7.859375 -8.847656 7.859375 -9.234375 C 7.859375 -9.566406 7.753906 -9.878906 7.546875 -10.171875 C 7.335938 -10.460938 7.035156 -10.695312 6.640625 -10.875 C 6.253906 -11.050781 5.78125 -11.140625 5.21875 -11.140625 C 4.769531 -11.140625 4.34375 -11.050781 3.9375 -10.875 C 3.539062 -10.707031 3.210938 -10.441406 2.953125 -10.078125 C 2.691406 -9.722656 2.554688 -9.265625 2.546875 -8.703125 Z M 0.984375 -8.703125 "/></g></g></g><g fill="#161616" fill-opacity="1"><g transform="translate(240.606874, 369.920727)"><g><path d="M 5.359375 -5.015625 L 5.359375 -3.765625 L 1.046875 -3.765625 L 1.046875 -5 Z M 5.359375 -5.015625 "/></g></g></g><g fill="#161616" fill-opacity="1"><g transform="translate(246.50855, 369.920727)"><g><path d="M 1.046875 0 L 1.046875 -1.453125 C 1.046875 -2.085938 1.164062 -2.632812 1.40625 -3.09375 C 1.644531 -3.550781 1.957031 -3.953125 2.34375 -4.296875 C 2.726562 -4.640625 3.148438 -4.945312 3.609375 -5.21875 C 4.078125 -5.488281 4.539062 -5.75 5 -6 C 5.457031 -6.25 5.878906 -6.507812 6.265625 -6.78125 C 6.648438 -7.0625 6.957031 -7.375 7.1875 -7.71875 C 7.425781 -8.070312 7.546875 -8.484375 7.546875 -8.953125 C 7.546875 -9.578125 7.328125 -10.082031 6.890625 -10.46875 C 6.453125 -10.863281 5.859375 -11.0625 5.109375 -11.0625 C 4.304688 -11.0625 3.660156 -10.832031 3.171875 -10.375 C 2.691406 -9.925781 2.421875 -9.328125 2.359375 -8.578125 L 0.796875 -8.578125 C 0.804688 -9.285156 0.976562 -9.929688 1.3125 -10.515625 C 1.644531 -11.097656 2.132812 -11.566406 2.78125 -11.921875 C 3.425781 -12.273438 4.222656 -12.453125 5.171875 -12.453125 C 5.992188 -12.453125 6.707031 -12.304688 7.3125 -12.015625 C 7.914062 -11.722656 8.382812 -11.3125 8.71875 -10.78125 C 9.050781 -10.257812 9.21875 -9.648438 9.21875 -8.953125 C 9.21875 -8.328125 9.097656 -7.785156 8.859375 -7.328125 C 8.628906 -6.878906 8.320312 -6.488281 7.9375 -6.15625 C 7.5625 -5.820312 7.144531 -5.523438 6.6875 -5.265625 C 6.238281 -5.003906 5.785156 -4.753906 5.328125 -4.515625 C 4.867188 -4.273438 4.445312 -4.019531 4.0625 -3.75 C 3.6875 -3.488281 3.378906 -3.1875 3.140625 -2.84375 C 2.910156 -2.507812 2.796875 -2.109375 2.796875 -1.640625 L 2.796875 -1.390625 L 9.28125 -1.390625 L 9.28125 0 Z M 1.046875 0 "/></g></g></g><g fill="#161616" fill-opacity="1"><g transform="translate(256.121233, 369.920727)"><g><path d="M 0.984375 -8.703125 C 0.984375 -9.492188 1.171875 -10.164062 1.546875 -10.71875 C 1.929688 -11.28125 2.445312 -11.707031 3.09375 -12 C 3.738281 -12.300781 4.445312 -12.453125 5.21875 -12.453125 C 6.070312 -12.453125 6.820312 -12.328125 7.46875 -12.078125 C 8.125 -11.828125 8.632812 -11.46875 9 -11 C 9.363281 -10.53125 9.546875 -9.957031 9.546875 -9.28125 C 9.546875 -8.675781 9.351562 -8.128906 8.96875 -7.640625 C 8.59375 -7.148438 8.003906 -6.765625 7.203125 -6.484375 C 7.742188 -6.335938 8.210938 -6.125 8.609375 -5.84375 C 9.015625 -5.5625 9.328125 -5.210938 9.546875 -4.796875 C 9.773438 -4.390625 9.890625 -3.921875 9.890625 -3.390625 C 9.890625 -2.828125 9.769531 -2.320312 9.53125 -1.875 C 9.300781 -1.4375 8.972656 -1.0625 8.546875 -0.75 C 8.117188 -0.4375 7.613281 -0.195312 7.03125 -0.03125 C 6.457031 0.125 5.832031 0.195312 5.15625 0.1875 C 4.3125 0.175781 3.566406 0.0195312 2.921875 -0.28125 C 2.285156 -0.582031 1.78125 -1.007812 1.40625 -1.5625 C 1.039062 -2.113281 0.84375 -2.769531 0.8125 -3.53125 L 2.390625 -3.53125 C 2.503906 -2.769531 2.8125 -2.179688 3.3125 -1.765625 C 3.820312 -1.359375 4.457031 -1.15625 5.21875 -1.15625 C 5.8125 -1.15625 6.332031 -1.25 6.78125 -1.4375 C 7.226562 -1.632812 7.570312 -1.898438 7.8125 -2.234375 C 8.0625 -2.566406 8.1875 -2.957031 8.1875 -3.40625 C 8.1875 -3.894531 8.050781 -4.304688 7.78125 -4.640625 C 7.507812 -4.984375 7.140625 -5.242188 6.671875 -5.421875 C 6.203125 -5.609375 5.675781 -5.703125 5.09375 -5.703125 L 3.984375 -5.734375 L 3.984375 -7.0625 L 5.046875 -7.09375 C 5.578125 -7.101562 6.054688 -7.203125 6.484375 -7.390625 C 6.910156 -7.585938 7.242188 -7.847656 7.484375 -8.171875 C 7.734375 -8.492188 7.859375 -8.847656 7.859375 -9.234375 C 7.859375 -9.566406 7.753906 -9.878906 7.546875 -10.171875 C 7.335938 -10.460938 7.035156 -10.695312 6.640625 -10.875 C 6.253906 -11.050781 5.78125 -11.140625 5.21875 -11.140625 C 4.769531 -11.140625 4.34375 -11.050781 3.9375 -10.875 C 3.539062 -10.707031 3.210938 -10.441406 2.953125 -10.078125 C 2.691406 -9.722656 2.554688 -9.265625 2.546875 -8.703125 Z M 0.984375 -8.703125 "/></g></g></g><g fill="#161616" fill-opacity="1"><g transform="translate(266.311377, 369.920727)"><g><path d="M 6.515625 -12.28125 L 8.109375 -12.28125 L 8.109375 -4.515625 L 10.140625 -4.515625 L 10.140625 -3.140625 L 8.109375 -3.140625 L 8.109375 0 L 6.578125 0 L 6.578125 -3.140625 L 0.796875 -3.140625 L 0.796875 -4.5625 Z M 2.296875 -4.515625 L 6.53125 -4.515625 L 6.53125 -10.21875 Z M 2.296875 -4.515625 "/></g></g></g><g fill="#161616" fill-opacity="1"><g transform="translate(276.476053, 369.920727)"><g><path d="M 5.203125 -12.453125 C 6.535156 -12.453125 7.597656 -11.914062 8.390625 -10.84375 C 9.179688 -9.78125 9.578125 -8.203125 9.578125 -6.109375 C 9.578125 -4.035156 9.179688 -2.46875 8.390625 -1.40625 C 7.597656 -0.34375 6.53125 0.1875 5.1875 0.1875 C 3.84375 0.1875 2.773438 -0.335938 1.984375 -1.390625 C 1.203125 -2.453125 0.8125 -4.019531 0.8125 -6.09375 C 0.8125 -7.488281 0.992188 -8.65625 1.359375 -9.59375 C 1.722656 -10.539062 2.234375 -11.253906 2.890625 -11.734375 C 3.546875 -12.210938 4.316406 -12.453125 5.203125 -12.453125 Z M 5.203125 -1.171875 C 6.078125 -1.171875 6.738281 -1.554688 7.1875 -2.328125 C 7.644531 -3.097656 7.875 -4.359375 7.875 -6.109375 C 7.875 -7.878906 7.644531 -9.15625 7.1875 -9.9375 C 6.726562 -10.726562 6.066406 -11.125 5.203125 -11.125 C 4.328125 -11.125 3.65625 -10.726562 3.1875 -9.9375 C 2.726562 -9.144531 2.5 -7.867188 2.5 -6.109375 C 2.5 -4.367188 2.726562 -3.109375 3.1875 -2.328125 C 3.65625 -1.554688 4.328125 -1.171875 5.203125 -1.171875 Z M 5.203125 -1.171875 "/></g></g></g><g fill="#4b706e" fill-opacity="1"><g transform="translate(174.796243, 345.109008)"><g><path d="M 7.734375 -13.453125 L 7.734375 0 L 5.6875 0 L 5.6875 -13.453125 L 0.5 -13.453125 L 0.5 -15.125 L 12.921875 -15.125 L 12.921875 -13.453125 Z M 7.734375 -13.453125 "/></g></g></g><g fill="#4b706e" fill-opacity="1"><g transform="translate(187.126315, 345.109008)"><g><path d="M 1.796875 0 L 1.796875 -15.125 L 13.28125 -15.125 L 13.28125 -13.453125 L 3.859375 -13.453125 L 3.859375 -8.59375 L 12.640625 -8.59375 L 12.640625 -6.9375 L 3.859375 -6.9375 L 3.859375 -1.671875 L 13.71875 -1.671875 L 13.71875 0 Z M 1.796875 0 "/></g></g></g><g fill="#4b706e" fill-opacity="1"><g transform="translate(200.690911, 345.109008)"><g><path d="M 1.796875 0 L 1.796875 -15.125 L 3.859375 -15.125 L 3.859375 -1.671875 L 11.5 -1.671875 L 11.5 0 Z M 1.796875 0 "/></g></g></g><g fill="#4b706e" fill-opacity="1"><g transform="translate(211.818658, 345.109008)"><g><path d="M 2 0 L 2 -2.34375 L 4.09375 -2.34375 L 4.09375 0 Z M 2 0 "/></g></g></g><g fill="#4b706e" fill-opacity="1"><g transform="translate(216.827432, 345.109008)"><g><path d="M 2 -9.390625 L 2 -11.609375 L 4.09375 -11.609375 L 4.09375 -9.390625 Z M 2 0 L 2 -2.21875 L 4.09375 -2.21875 L 4.09375 0 Z M 2 0 "/></g></g></g></svg>